<?xml version="1.0" encoding="UTF-8" standalone="no"?>
<!DOCTYPE svg PUBLIC "-//W3C//DTD SVG 1.1//EN"
 "http://www.w3.org/Graphics/SVG/1.1/DTD/svg11.dtd">
<!-- Generated by graphviz version 2.34.0 (20130907.0111)
 -->
<!-- Title: g Pages: 1 -->
<svg width="1972pt" height="548pt"
 viewBox="0.00 0.00 1972.00 548.00" xmlns="http://www.w3.org/2000/svg" xmlns:xlink="http://www.w3.org/1999/xlink">
<g id="graph0" class="graph" transform="scale(1 1) rotate(0) translate(4 544)">
<title>g</title>
<defs>
<linearGradient id="l_0" gradientUnits="userSpaceOnUse" x1="982" y1="-544" x2="982" y2="4" >
<stop offset="0" style="stop-color:white;stop-opacity:1.;"/>
<stop offset="1" style="stop-color:lightblue;stop-opacity:1.;"/>
</linearGradient>
</defs>
<polygon fill="url(#l_0)" stroke="none" points="-4,4 -4,-544 1968,-544 1968,4 -4,4"/>
<!-- baum.Ast@79717e -->
<g id="node1" class="node"><title>baum.Ast@79717e</title>
<polygon fill="lightgray" stroke="lightgray" points="366,-540 312,-540 312,-504 366,-504 366,-540"/>
<text text-anchor="middle" x="339" y="-518.3" font-family="Times New Roman,serif" font-size="14.00">164</text>
</g>
<!-- baum.Ast@10a2d64 -->
<g id="node2" class="node"><title>baum.Ast@10a2d64</title>
<polygon fill="lightgray" stroke="lightgray" points="255,-468 201,-468 201,-432 255,-432 255,-468"/>
<text text-anchor="middle" x="228" y="-446.3" font-family="Times New Roman,serif" font-size="14.00">81</text>
</g>
<!-- baum.Ast@79717e&#45;&gt;baum.Ast@10a2d64 -->
<g id="edge59" class="edge"><title>baum.Ast@79717e&#45;&gt;baum.Ast@10a2d64</title>
<path fill="none" stroke="black" d="M311.846,-503.876C297.467,-494.808 279.619,-483.552 264.09,-473.759"/>
<polygon fill="black" stroke="black" points="265.584,-470.564 255.258,-468.19 261.85,-476.484 265.584,-470.564"/>
</g>
<!-- baum.Ast@12a3722 -->
<g id="node11" class="node"><title>baum.Ast@12a3722</title>
<polygon fill="lightgray" stroke="lightgray" points="477,-468 423,-468 423,-432 477,-432 477,-468"/>
<text text-anchor="middle" x="450" y="-446.3" font-family="Times New Roman,serif" font-size="14.00">83</text>
</g>
<!-- baum.Ast@79717e&#45;&gt;baum.Ast@12a3722 -->
<g id="edge60" class="edge"><title>baum.Ast@79717e&#45;&gt;baum.Ast@12a3722</title>
<path fill="none" stroke="black" d="M366.154,-503.876C380.533,-494.808 398.381,-483.552 413.91,-473.759"/>
<polygon fill="black" stroke="black" points="416.15,-476.484 422.742,-468.19 412.416,-470.564 416.15,-476.484"/>
</g>
<!-- baum.Ast@89cf1e -->
<g id="node3" class="node"><title>baum.Ast@89cf1e</title>
<polygon fill="lightgray" stroke="lightgray" points="135,-396 81,-396 81,-360 135,-360 135,-396"/>
<text text-anchor="middle" x="108" y="-374.3" font-family="Times New Roman,serif" font-size="14.00">47</text>
</g>
<!-- baum.Ast@10a2d64&#45;&gt;baum.Ast@89cf1e -->
<g id="edge7" class="edge"><title>baum.Ast@10a2d64&#45;&gt;baum.Ast@89cf1e</title>
<path fill="none" stroke="black" d="M200.77,-433.116C183.893,-423.271 162.026,-410.515 143.761,-399.861"/>
<polygon fill="black" stroke="black" points="145.523,-396.837 135.122,-394.821 141.996,-402.883 145.523,-396.837"/>
</g>
<!-- baum.Ast@17ce4e7 -->
<g id="node6" class="node"><title>baum.Ast@17ce4e7</title>
<polygon fill="lightgray" stroke="lightgray" points="255,-396 201,-396 201,-360 255,-360 255,-396"/>
<text text-anchor="middle" x="228" y="-374.3" font-family="Times New Roman,serif" font-size="14.00">34</text>
</g>
<!-- baum.Ast@10a2d64&#45;&gt;baum.Ast@17ce4e7 -->
<g id="edge8" class="edge"><title>baum.Ast@10a2d64&#45;&gt;baum.Ast@17ce4e7</title>
<path fill="none" stroke="black" d="M228,-431.697C228,-423.983 228,-414.712 228,-406.112"/>
<polygon fill="black" stroke="black" points="231.5,-406.104 228,-396.104 224.5,-406.104 231.5,-406.104"/>
</g>
<!-- baum.Blatt@982589 -->
<g id="node4" class="node"><title>baum.Blatt@982589</title>
<ellipse fill="#00b247" stroke="#00b247" cx="29" cy="-306" rx="29.3479" ry="18"/>
<text text-anchor="middle" x="29" y="-302.3" font-family="Times New Roman,serif" font-size="14.00"> &#160;&#45; 24</text>
</g>
<!-- baum.Ast@89cf1e&#45;&gt;baum.Blatt@982589 -->
<g id="edge1" class="edge"><title>baum.Ast@89cf1e&#45;&gt;baum.Blatt@982589</title>
<path fill="none" stroke="black" d="M88.4719,-359.697C77.6315,-350.091 64.0678,-338.073 52.6322,-327.94"/>
<polygon fill="black" stroke="black" points="54.9206,-325.291 45.1148,-321.279 50.2782,-330.53 54.9206,-325.291"/>
</g>
<!-- baum.Blatt@c88440 -->
<g id="node5" class="node"><title>baum.Blatt@c88440</title>
<ellipse fill="#00b247" stroke="#00b247" cx="108" cy="-306" rx="31.2965" ry="18"/>
<text text-anchor="middle" x="108" y="-302.3" font-family="Times New Roman,serif" font-size="14.00">e &#45; 23</text>
</g>
<!-- baum.Ast@89cf1e&#45;&gt;baum.Blatt@c88440 -->
<g id="edge2" class="edge"><title>baum.Ast@89cf1e&#45;&gt;baum.Blatt@c88440</title>
<path fill="none" stroke="black" d="M108,-359.697C108,-351.983 108,-342.712 108,-334.112"/>
<polygon fill="black" stroke="black" points="111.5,-334.104 108,-324.104 104.5,-334.104 111.5,-334.104"/>
</g>
<!-- baum.Blatt@62937c -->
<g id="node7" class="node"><title>baum.Blatt@62937c</title>
<ellipse fill="#00b247" stroke="#00b247" cx="189" cy="-306" rx="31.2735" ry="18"/>
<text text-anchor="middle" x="189" y="-302.3" font-family="Times New Roman,serif" font-size="14.00">n &#45; 13</text>
</g>
<!-- baum.Ast@17ce4e7&#45;&gt;baum.Blatt@62937c -->
<g id="edge5" class="edge"><title>baum.Ast@17ce4e7&#45;&gt;baum.Blatt@62937c</title>
<path fill="none" stroke="black" d="M218.36,-359.697C213.806,-351.523 208.279,-341.603 203.254,-332.584"/>
<polygon fill="black" stroke="black" points="206.186,-330.655 198.261,-323.622 200.071,-334.061 206.186,-330.655"/>
</g>
<!-- baum.Ast@1c0e45a -->
<g id="node8" class="node"><title>baum.Ast@1c0e45a</title>
<polygon fill="lightgray" stroke="lightgray" points="293,-324 239,-324 239,-288 293,-288 293,-324"/>
<text text-anchor="middle" x="266" y="-302.3" font-family="Times New Roman,serif" font-size="14.00">21</text>
</g>
<!-- baum.Ast@17ce4e7&#45;&gt;baum.Ast@1c0e45a -->
<g id="edge6" class="edge"><title>baum.Ast@17ce4e7&#45;&gt;baum.Ast@1c0e45a</title>
<path fill="none" stroke="black" d="M237.393,-359.697C241.765,-351.644 247.057,-341.894 251.895,-332.982"/>
<polygon fill="black" stroke="black" points="255.02,-334.563 256.715,-324.104 248.868,-331.223 255.02,-334.563"/>
</g>
<!-- baum.Blatt@cfec48 -->
<g id="node9" class="node"><title>baum.Blatt@cfec48</title>
<ellipse fill="#00b247" stroke="#00b247" cx="188" cy="-234" rx="29.3722" ry="18"/>
<text text-anchor="middle" x="188" y="-230.3" font-family="Times New Roman,serif" font-size="14.00">i &#45; 11</text>
</g>
<!-- baum.Ast@1c0e45a&#45;&gt;baum.Blatt@cfec48 -->
<g id="edge3" class="edge"><title>baum.Ast@1c0e45a&#45;&gt;baum.Blatt@cfec48</title>
<path fill="none" stroke="black" d="M246.719,-287.697C236.119,-278.184 222.881,-266.304 211.659,-256.233"/>
<polygon fill="black" stroke="black" points="213.691,-253.353 203.911,-249.279 209.016,-258.563 213.691,-253.353"/>
</g>
<!-- baum.Blatt@a17083 -->
<g id="node10" class="node"><title>baum.Blatt@a17083</title>
<ellipse fill="#00b247" stroke="#00b247" cx="266" cy="-234" rx="30.3206" ry="18"/>
<text text-anchor="middle" x="266" y="-230.3" font-family="Times New Roman,serif" font-size="14.00">r &#45; 10</text>
</g>
<!-- baum.Ast@1c0e45a&#45;&gt;baum.Blatt@a17083 -->
<g id="edge4" class="edge"><title>baum.Ast@1c0e45a&#45;&gt;baum.Blatt@a17083</title>
<path fill="none" stroke="black" d="M266,-287.697C266,-279.983 266,-270.712 266,-262.112"/>
<polygon fill="black" stroke="black" points="269.5,-262.104 266,-252.104 262.5,-262.104 269.5,-262.104"/>
</g>
<!-- baum.Ast@e1d5ea -->
<g id="node12" class="node"><title>baum.Ast@e1d5ea</title>
<polygon fill="lightgray" stroke="lightgray" points="477,-396 423,-396 423,-360 477,-360 477,-396"/>
<text text-anchor="middle" x="450" y="-374.3" font-family="Times New Roman,serif" font-size="14.00">38</text>
</g>
<!-- baum.Ast@12a3722&#45;&gt;baum.Ast@e1d5ea -->
<g id="edge57" class="edge"><title>baum.Ast@12a3722&#45;&gt;baum.Ast@e1d5ea</title>
<path fill="none" stroke="black" d="M450,-431.697C450,-423.983 450,-414.712 450,-406.112"/>
<polygon fill="black" stroke="black" points="453.5,-406.104 450,-396.104 446.5,-406.104 453.5,-406.104"/>
</g>
<!-- baum.Ast@a31e1b -->
<g id="node23" class="node"><title>baum.Ast@a31e1b</title>
<polygon fill="lightgray" stroke="lightgray" points="895,-396 841,-396 841,-360 895,-360 895,-396"/>
<text text-anchor="middle" x="868" y="-374.3" font-family="Times New Roman,serif" font-size="14.00">45</text>
</g>
<!-- baum.Ast@12a3722&#45;&gt;baum.Ast@a31e1b -->
<g id="edge58" class="edge"><title>baum.Ast@12a3722&#45;&gt;baum.Ast@a31e1b</title>
<path fill="none" stroke="black" d="M477.104,-444.461C549.623,-432.317 748.194,-399.063 830.988,-385.198"/>
<polygon fill="black" stroke="black" points="831.673,-388.632 840.957,-383.529 830.517,-381.728 831.673,-388.632"/>
</g>
<!-- baum.Ast@10da5eb -->
<g id="node13" class="node"><title>baum.Ast@10da5eb</title>
<polygon fill="lightgray" stroke="lightgray" points="441,-324 387,-324 387,-288 441,-288 441,-324"/>
<text text-anchor="middle" x="414" y="-302.3" font-family="Times New Roman,serif" font-size="14.00">15</text>
</g>
<!-- baum.Ast@e1d5ea&#45;&gt;baum.Ast@10da5eb -->
<g id="edge17" class="edge"><title>baum.Ast@e1d5ea&#45;&gt;baum.Ast@10da5eb</title>
<path fill="none" stroke="black" d="M441.101,-359.697C437.003,-351.728 432.051,-342.1 427.507,-333.264"/>
<polygon fill="black" stroke="black" points="430.483,-331.396 422.797,-324.104 424.258,-334.598 430.483,-331.396"/>
</g>
<!-- baum.Ast@1081d2e -->
<g id="node16" class="node"><title>baum.Ast@1081d2e</title>
<polygon fill="lightgray" stroke="lightgray" points="513,-324 459,-324 459,-288 513,-288 513,-324"/>
<text text-anchor="middle" x="486" y="-302.3" font-family="Times New Roman,serif" font-size="14.00">23</text>
</g>
<!-- baum.Ast@e1d5ea&#45;&gt;baum.Ast@1081d2e -->
<g id="edge18" class="edge"><title>baum.Ast@e1d5ea&#45;&gt;baum.Ast@1081d2e</title>
<path fill="none" stroke="black" d="M458.899,-359.697C462.997,-351.728 467.949,-342.1 472.493,-333.264"/>
<polygon fill="black" stroke="black" points="475.742,-334.598 477.203,-324.104 469.517,-331.396 475.742,-334.598"/>
</g>
<!-- baum.Blatt@1b3f829 -->
<g id="node14" class="node"><title>baum.Blatt@1b3f829</title>
<ellipse fill="#00b247" stroke="#00b247" cx="342" cy="-234" rx="26.949" ry="18"/>
<text text-anchor="middle" x="342" y="-230.3" font-family="Times New Roman,serif" font-size="14.00">u &#45; 8</text>
</g>
<!-- baum.Ast@10da5eb&#45;&gt;baum.Blatt@1b3f829 -->
<g id="edge9" class="edge"><title>baum.Ast@10da5eb&#45;&gt;baum.Blatt@1b3f829</title>
<path fill="none" stroke="black" d="M396.202,-287.697C386.512,-278.276 374.435,-266.534 364.142,-256.527"/>
<polygon fill="black" stroke="black" points="366.297,-253.74 356.687,-249.279 361.417,-258.759 366.297,-253.74"/>
</g>
<!-- baum.Blatt@698403 -->
<g id="node15" class="node"><title>baum.Blatt@698403</title>
<ellipse fill="#00b247" stroke="#00b247" cx="414" cy="-234" rx="27" ry="18"/>
<text text-anchor="middle" x="414" y="-230.3" font-family="Times New Roman,serif" font-size="14.00">t &#45; 7</text>
</g>
<!-- baum.Ast@10da5eb&#45;&gt;baum.Blatt@698403 -->
<g id="edge10" class="edge"><title>baum.Ast@10da5eb&#45;&gt;baum.Blatt@698403</title>
<path fill="none" stroke="black" d="M414,-287.697C414,-279.983 414,-270.712 414,-262.112"/>
<polygon fill="black" stroke="black" points="417.5,-262.104 414,-252.104 410.5,-262.104 417.5,-262.104"/>
</g>
<!-- baum.Ast@15a0305 -->
<g id="node17" class="node"><title>baum.Ast@15a0305</title>
<polygon fill="lightgray" stroke="lightgray" points="513,-252 459,-252 459,-216 513,-216 513,-252"/>
<text text-anchor="middle" x="486" y="-230.3" font-family="Times New Roman,serif" font-size="14.00">12</text>
</g>
<!-- baum.Ast@1081d2e&#45;&gt;baum.Ast@15a0305 -->
<g id="edge15" class="edge"><title>baum.Ast@1081d2e&#45;&gt;baum.Ast@15a0305</title>
<path fill="none" stroke="black" d="M486,-287.697C486,-279.983 486,-270.712 486,-262.112"/>
<polygon fill="black" stroke="black" points="489.5,-262.104 486,-252.104 482.5,-262.104 489.5,-262.104"/>
</g>
<!-- baum.Ast@7c4c51 -->
<g id="node20" class="node"><title>baum.Ast@7c4c51</title>
<polygon fill="lightgray" stroke="lightgray" points="585,-252 531,-252 531,-216 585,-216 585,-252"/>
<text text-anchor="middle" x="558" y="-230.3" font-family="Times New Roman,serif" font-size="14.00">11</text>
</g>
<!-- baum.Ast@1081d2e&#45;&gt;baum.Ast@7c4c51 -->
<g id="edge16" class="edge"><title>baum.Ast@1081d2e&#45;&gt;baum.Ast@7c4c51</title>
<path fill="none" stroke="black" d="M503.798,-287.697C512.604,-279.135 523.382,-268.656 533.001,-259.304"/>
<polygon fill="black" stroke="black" points="535.677,-261.585 540.407,-252.104 530.797,-256.566 535.677,-261.585"/>
</g>
<!-- baum.Blatt@765a16 -->
<g id="node18" class="node"><title>baum.Blatt@765a16</title>
<ellipse fill="#00b247" stroke="#00b247" cx="412" cy="-162" rx="27" ry="18"/>
<text text-anchor="middle" x="412" y="-158.3" font-family="Times New Roman,serif" font-size="14.00">a &#45; 6</text>
</g>
<!-- baum.Ast@15a0305&#45;&gt;baum.Blatt@765a16 -->
<g id="edge11" class="edge"><title>baum.Ast@15a0305&#45;&gt;baum.Blatt@765a16</title>
<path fill="none" stroke="black" d="M467.708,-215.697C457.651,-206.184 445.092,-194.304 434.446,-184.233"/>
<polygon fill="black" stroke="black" points="436.765,-181.608 427.095,-177.279 431.954,-186.694 436.765,-181.608"/>
</g>
<!-- baum.Blatt@148bd3 -->
<g id="node19" class="node"><title>baum.Blatt@148bd3</title>
<ellipse fill="#00b247" stroke="#00b247" cx="485" cy="-162" rx="27.4223" ry="18"/>
<text text-anchor="middle" x="485" y="-158.3" font-family="Times New Roman,serif" font-size="14.00">d &#45; 6</text>
</g>
<!-- baum.Ast@15a0305&#45;&gt;baum.Blatt@148bd3 -->
<g id="edge12" class="edge"><title>baum.Ast@15a0305&#45;&gt;baum.Blatt@148bd3</title>
<path fill="none" stroke="black" d="M485.753,-215.697C485.643,-207.983 485.51,-198.712 485.387,-190.112"/>
<polygon fill="black" stroke="black" points="488.887,-190.053 485.244,-180.104 481.888,-190.153 488.887,-190.053"/>
</g>
<!-- baum.Blatt@e80842 -->
<g id="node21" class="node"><title>baum.Blatt@e80842</title>
<ellipse fill="#00b247" stroke="#00b247" cx="558" cy="-162" rx="26.949" ry="18"/>
<text text-anchor="middle" x="558" y="-158.3" font-family="Times New Roman,serif" font-size="14.00">h &#45; 6</text>
</g>
<!-- baum.Ast@7c4c51&#45;&gt;baum.Blatt@e80842 -->
<g id="edge13" class="edge"><title>baum.Ast@7c4c51&#45;&gt;baum.Blatt@e80842</title>
<path fill="none" stroke="black" d="M558,-215.697C558,-207.983 558,-198.712 558,-190.112"/>
<polygon fill="black" stroke="black" points="561.5,-190.104 558,-180.104 554.5,-190.104 561.5,-190.104"/>
</g>
<!-- baum.Blatt@17653ae -->
<g id="node22" class="node"><title>baum.Blatt@17653ae</title>
<ellipse fill="#00b247" stroke="#00b247" cx="631" cy="-162" rx="26.949" ry="18"/>
<text text-anchor="middle" x="631" y="-158.3" font-family="Times New Roman,serif" font-size="14.00">c &#45; 5</text>
</g>
<!-- baum.Ast@7c4c51&#45;&gt;baum.Blatt@17653ae -->
<g id="edge14" class="edge"><title>baum.Ast@7c4c51&#45;&gt;baum.Blatt@17653ae</title>
<path fill="none" stroke="black" d="M576.045,-215.697C585.966,-206.184 598.355,-194.304 608.857,-184.233"/>
<polygon fill="black" stroke="black" points="611.314,-186.726 616.109,-177.279 606.469,-181.674 611.314,-186.726"/>
</g>
<!-- baum.Ast@16fe0f4 -->
<g id="node24" class="node"><title>baum.Ast@16fe0f4</title>
<polygon fill="lightgray" stroke="lightgray" points="895,-324 841,-324 841,-288 895,-288 895,-324"/>
<text text-anchor="middle" x="868" y="-302.3" font-family="Times New Roman,serif" font-size="14.00">28</text>
</g>
<!-- baum.Ast@a31e1b&#45;&gt;baum.Ast@16fe0f4 -->
<g id="edge55" class="edge"><title>baum.Ast@a31e1b&#45;&gt;baum.Ast@16fe0f4</title>
<path fill="none" stroke="black" d="M868,-359.697C868,-351.983 868,-342.712 868,-334.112"/>
<polygon fill="black" stroke="black" points="871.5,-334.104 868,-324.104 864.5,-334.104 871.5,-334.104"/>
</g>
<!-- baum.Ast@19d0a1 -->
<g id="node39" class="node"><title>baum.Ast@19d0a1</title>
<polygon fill="lightgray" stroke="lightgray" points="1337,-324 1283,-324 1283,-288 1337,-288 1337,-324"/>
<text text-anchor="middle" x="1310" y="-302.3" font-family="Times New Roman,serif" font-size="14.00">17</text>
</g>
<!-- baum.Ast@a31e1b&#45;&gt;baum.Ast@19d0a1 -->
<g id="edge56" class="edge"><title>baum.Ast@a31e1b&#45;&gt;baum.Ast@19d0a1</title>
<path fill="none" stroke="black" d="M895.316,-372.674C971.459,-360.615 1186.17,-326.611 1272.94,-312.87"/>
<polygon fill="black" stroke="black" points="1273.54,-316.318 1282.87,-311.297 1272.44,-309.404 1273.54,-316.318"/>
</g>
<!-- baum.Ast@d02b51 -->
<g id="node25" class="node"><title>baum.Ast@d02b51</title>
<polygon fill="lightgray" stroke="lightgray" points="821,-252 767,-252 767,-216 821,-216 821,-252"/>
<text text-anchor="middle" x="794" y="-230.3" font-family="Times New Roman,serif" font-size="14.00">13</text>
</g>
<!-- baum.Ast@16fe0f4&#45;&gt;baum.Ast@d02b51 -->
<g id="edge31" class="edge"><title>baum.Ast@16fe0f4&#45;&gt;baum.Ast@d02b51</title>
<path fill="none" stroke="black" d="M849.708,-287.697C840.567,-279.05 829.36,-268.449 819.4,-259.027"/>
<polygon fill="black" stroke="black" points="821.752,-256.434 812.082,-252.104 816.941,-261.519 821.752,-256.434"/>
</g>
<!-- baum.Ast@cbf30e -->
<g id="node32" class="node"><title>baum.Ast@cbf30e</title>
<polygon fill="lightgray" stroke="lightgray" points="970,-252 916,-252 916,-216 970,-216 970,-252"/>
<text text-anchor="middle" x="943" y="-230.3" font-family="Times New Roman,serif" font-size="14.00">15</text>
</g>
<!-- baum.Ast@16fe0f4&#45;&gt;baum.Ast@cbf30e -->
<g id="edge32" class="edge"><title>baum.Ast@16fe0f4&#45;&gt;baum.Ast@cbf30e</title>
<path fill="none" stroke="black" d="M886.539,-287.697C895.803,-279.05 907.162,-268.449 917.257,-259.027"/>
<polygon fill="black" stroke="black" points="919.751,-261.486 924.674,-252.104 914.975,-256.369 919.751,-261.486"/>
</g>
<!-- baum.Ast@1c247a0 -->
<g id="node26" class="node"><title>baum.Ast@1c247a0</title>
<polygon fill="lightgray" stroke="lightgray" points="730,-180 676,-180 676,-144 730,-144 730,-180"/>
<text text-anchor="middle" x="703" y="-158.3" font-family="Times New Roman,serif" font-size="14.00">7</text>
</g>
<!-- baum.Ast@d02b51&#45;&gt;baum.Ast@1c247a0 -->
<g id="edge23" class="edge"><title>baum.Ast@d02b51&#45;&gt;baum.Ast@1c247a0</title>
<path fill="none" stroke="black" d="M771.506,-215.697C760.045,-206.881 745.942,-196.032 733.516,-186.474"/>
<polygon fill="black" stroke="black" points="735.296,-183.427 725.236,-180.104 731.028,-188.976 735.296,-183.427"/>
</g>
<!-- baum.Ast@1ec6696 -->
<g id="node29" class="node"><title>baum.Ast@1ec6696</title>
<polygon fill="lightgray" stroke="lightgray" points="821,-180 767,-180 767,-144 821,-144 821,-180"/>
<text text-anchor="middle" x="794" y="-158.3" font-family="Times New Roman,serif" font-size="14.00">6</text>
</g>
<!-- baum.Ast@d02b51&#45;&gt;baum.Ast@1ec6696 -->
<g id="edge24" class="edge"><title>baum.Ast@d02b51&#45;&gt;baum.Ast@1ec6696</title>
<path fill="none" stroke="black" d="M794,-215.697C794,-207.983 794,-198.712 794,-190.112"/>
<polygon fill="black" stroke="black" points="797.5,-190.104 794,-180.104 790.5,-190.104 797.5,-190.104"/>
</g>
<!-- baum.Blatt@1431340 -->
<g id="node27" class="node"><title>baum.Blatt@1431340</title>
<ellipse fill="#00b247" stroke="#00b247" cx="609" cy="-90" rx="29.3722" ry="18"/>
<text text-anchor="middle" x="609" y="-86.3" font-family="Times New Roman,serif" font-size="14.00">w &#45; 4</text>
</g>
<!-- baum.Ast@1c247a0&#45;&gt;baum.Blatt@1431340 -->
<g id="edge19" class="edge"><title>baum.Ast@1c247a0&#45;&gt;baum.Blatt@1431340</title>
<path fill="none" stroke="black" d="M679.764,-143.697C666.257,-133.638 649.197,-120.934 635.212,-110.519"/>
<polygon fill="black" stroke="black" points="637.072,-107.541 626.961,-104.375 632.891,-113.155 637.072,-107.541"/>
</g>
<!-- baum.Blatt@a4e2e3 -->
<g id="node28" class="node"><title>baum.Blatt@a4e2e3</title>
<ellipse fill="#00b247" stroke="#00b247" cx="683" cy="-90" rx="27" ry="18"/>
<text text-anchor="middle" x="683" y="-86.3" font-family="Times New Roman,serif" font-size="14.00">. &#45; 3</text>
</g>
<!-- baum.Ast@1c247a0&#45;&gt;baum.Blatt@a4e2e3 -->
<g id="edge20" class="edge"><title>baum.Ast@1c247a0&#45;&gt;baum.Blatt@a4e2e3</title>
<path fill="none" stroke="black" d="M698.056,-143.697C695.828,-135.898 693.145,-126.509 690.665,-117.829"/>
<polygon fill="black" stroke="black" points="694,-116.758 687.887,-108.104 687.269,-118.681 694,-116.758"/>
</g>
<!-- baum.Blatt@12bb7e0 -->
<g id="node30" class="node"><title>baum.Blatt@12bb7e0</title>
<ellipse fill="#00b247" stroke="#00b247" cx="757" cy="-90" rx="28.3955" ry="18"/>
<text text-anchor="middle" x="757" y="-86.3" font-family="Times New Roman,serif" font-size="14.00">S &#45; 3</text>
</g>
<!-- baum.Ast@1ec6696&#45;&gt;baum.Blatt@12bb7e0 -->
<g id="edge21" class="edge"><title>baum.Ast@1ec6696&#45;&gt;baum.Blatt@12bb7e0</title>
<path fill="none" stroke="black" d="M784.854,-143.697C780.534,-135.523 775.29,-125.603 770.523,-116.584"/>
<polygon fill="black" stroke="black" points="773.554,-114.828 765.786,-107.622 767.365,-118.099 773.554,-114.828"/>
</g>
<!-- baum.Blatt@134f69a -->
<g id="node31" class="node"><title>baum.Blatt@134f69a</title>
<ellipse fill="#00b247" stroke="#00b247" cx="831" cy="-90" rx="26.949" ry="18"/>
<text text-anchor="middle" x="831" y="-86.3" font-family="Times New Roman,serif" font-size="14.00">g &#45; 3</text>
</g>
<!-- baum.Ast@1ec6696&#45;&gt;baum.Blatt@134f69a -->
<g id="edge22" class="edge"><title>baum.Ast@1ec6696&#45;&gt;baum.Blatt@134f69a</title>
<path fill="none" stroke="black" d="M803.146,-143.697C807.53,-135.403 812.864,-125.311 817.687,-116.187"/>
<polygon fill="black" stroke="black" points="820.888,-117.621 822.466,-107.145 814.699,-114.35 820.888,-117.621"/>
</g>
<!-- baum.Ast@2a15cd -->
<g id="node33" class="node"><title>baum.Ast@2a15cd</title>
<polygon fill="lightgray" stroke="lightgray" points="970,-180 916,-180 916,-144 970,-144 970,-180"/>
<text text-anchor="middle" x="943" y="-158.3" font-family="Times New Roman,serif" font-size="14.00">9</text>
</g>
<!-- baum.Ast@cbf30e&#45;&gt;baum.Ast@2a15cd -->
<g id="edge29" class="edge"><title>baum.Ast@cbf30e&#45;&gt;baum.Ast@2a15cd</title>
<path fill="none" stroke="black" d="M943,-215.697C943,-207.983 943,-198.712 943,-190.112"/>
<polygon fill="black" stroke="black" points="946.5,-190.104 943,-180.104 939.5,-190.104 946.5,-190.104"/>
</g>
<!-- baum.Ast@fd68b1 -->
<g id="node36" class="node"><title>baum.Ast@fd68b1</title>
<polygon fill="lightgray" stroke="lightgray" points="1080,-180 1026,-180 1026,-144 1080,-144 1080,-180"/>
<text text-anchor="middle" x="1053" y="-158.3" font-family="Times New Roman,serif" font-size="14.00">6</text>
</g>
<!-- baum.Ast@cbf30e&#45;&gt;baum.Ast@fd68b1 -->
<g id="edge30" class="edge"><title>baum.Ast@cbf30e&#45;&gt;baum.Ast@fd68b1</title>
<path fill="none" stroke="black" d="M969.909,-215.876C984.158,-206.808 1001.85,-195.552 1017.24,-185.759"/>
<polygon fill="black" stroke="black" points="1019.43,-188.511 1025.99,-180.19 1015.67,-182.606 1019.43,-188.511"/>
</g>
<!-- baum.Blatt@e45076 -->
<g id="node34" class="node"><title>baum.Blatt@e45076</title>
<ellipse fill="#00b247" stroke="#00b247" cx="906" cy="-90" rx="29.3479" ry="18"/>
<text text-anchor="middle" x="906" y="-86.3" font-family="Times New Roman,serif" font-size="14.00">m &#45; 5</text>
</g>
<!-- baum.Ast@2a15cd&#45;&gt;baum.Blatt@e45076 -->
<g id="edge25" class="edge"><title>baum.Ast@2a15cd&#45;&gt;baum.Blatt@e45076</title>
<path fill="none" stroke="black" d="M933.854,-143.697C929.534,-135.523 924.29,-125.603 919.523,-116.584"/>
<polygon fill="black" stroke="black" points="922.554,-114.828 914.786,-107.622 916.365,-118.099 922.554,-114.828"/>
</g>
<!-- baum.Blatt@15e9756 -->
<g id="node35" class="node"><title>baum.Blatt@15e9756</title>
<ellipse fill="#00b247" stroke="#00b247" cx="981" cy="-90" rx="27" ry="18"/>
<text text-anchor="middle" x="981" y="-86.3" font-family="Times New Roman,serif" font-size="14.00">s &#45; 4</text>
</g>
<!-- baum.Ast@2a15cd&#45;&gt;baum.Blatt@15e9756 -->
<g id="edge26" class="edge"><title>baum.Ast@2a15cd&#45;&gt;baum.Blatt@15e9756</title>
<path fill="none" stroke="black" d="M952.393,-143.697C956.895,-135.403 962.374,-125.311 967.327,-116.187"/>
<polygon fill="black" stroke="black" points="970.541,-117.603 972.236,-107.145 964.389,-114.263 970.541,-117.603"/>
</g>
<!-- baum.Blatt@121ab80 -->
<g id="node37" class="node"><title>baum.Blatt@121ab80</title>
<ellipse fill="#00b247" stroke="#00b247" cx="1053" cy="-90" rx="27" ry="18"/>
<text text-anchor="middle" x="1053" y="-86.3" font-family="Times New Roman,serif" font-size="14.00">l &#45; 3</text>
</g>
<!-- baum.Ast@fd68b1&#45;&gt;baum.Blatt@121ab80 -->
<g id="edge27" class="edge"><title>baum.Ast@fd68b1&#45;&gt;baum.Blatt@121ab80</title>
<path fill="none" stroke="black" d="M1053,-143.697C1053,-135.983 1053,-126.712 1053,-118.112"/>
<polygon fill="black" stroke="black" points="1056.5,-118.104 1053,-108.104 1049.5,-118.104 1056.5,-118.104"/>
</g>
<!-- baum.Blatt@1827284 -->
<g id="node38" class="node"><title>baum.Blatt@1827284</title>
<ellipse fill="#00b247" stroke="#00b247" cx="1126" cy="-90" rx="27.4223" ry="18"/>
<text text-anchor="middle" x="1126" y="-86.3" font-family="Times New Roman,serif" font-size="14.00">o &#45; 3</text>
</g>
<!-- baum.Ast@fd68b1&#45;&gt;baum.Blatt@1827284 -->
<g id="edge28" class="edge"><title>baum.Ast@fd68b1&#45;&gt;baum.Blatt@1827284</title>
<path fill="none" stroke="black" d="M1071.04,-143.697C1080.97,-134.184 1093.35,-122.304 1103.86,-112.233"/>
<polygon fill="black" stroke="black" points="1106.31,-114.726 1111.11,-105.279 1101.47,-109.674 1106.31,-114.726"/>
</g>
<!-- baum.Ast@12c7568 -->
<g id="node40" class="node"><title>baum.Ast@12c7568</title>
<polygon fill="lightgray" stroke="lightgray" points="1337,-252 1283,-252 1283,-216 1337,-216 1337,-252"/>
<text text-anchor="middle" x="1310" y="-230.3" font-family="Times New Roman,serif" font-size="14.00">9</text>
</g>
<!-- baum.Ast@19d0a1&#45;&gt;baum.Ast@12c7568 -->
<g id="edge53" class="edge"><title>baum.Ast@19d0a1&#45;&gt;baum.Ast@12c7568</title>
<path fill="none" stroke="black" d="M1310,-287.697C1310,-279.983 1310,-270.712 1310,-262.112"/>
<polygon fill="black" stroke="black" points="1313.5,-262.104 1310,-252.104 1306.5,-262.104 1313.5,-262.104"/>
</g>
<!-- baum.Ast@1d009b4 -->
<g id="node47" class="node"><title>baum.Ast@1d009b4</title>
<polygon fill="lightgray" stroke="lightgray" points="1558,-252 1504,-252 1504,-216 1558,-216 1558,-252"/>
<text text-anchor="middle" x="1531" y="-230.3" font-family="Times New Roman,serif" font-size="14.00">8</text>
</g>
<!-- baum.Ast@19d0a1&#45;&gt;baum.Ast@1d009b4 -->
<g id="edge54" class="edge"><title>baum.Ast@19d0a1&#45;&gt;baum.Ast@1d009b4</title>
<path fill="none" stroke="black" d="M1337.1,-296.417C1376.45,-283.953 1449.54,-260.803 1493.87,-246.76"/>
<polygon fill="black" stroke="black" points="1495.2,-250.01 1503.68,-243.654 1493.09,-243.337 1495.2,-250.01"/>
</g>
<!-- baum.Ast@12d15a9 -->
<g id="node41" class="node"><title>baum.Ast@12d15a9</title>
<polygon fill="lightgray" stroke="lightgray" points="1300,-180 1246,-180 1246,-144 1300,-144 1300,-180"/>
<text text-anchor="middle" x="1273" y="-158.3" font-family="Times New Roman,serif" font-size="14.00">5</text>
</g>
<!-- baum.Ast@12c7568&#45;&gt;baum.Ast@12d15a9 -->
<g id="edge37" class="edge"><title>baum.Ast@12c7568&#45;&gt;baum.Ast@12d15a9</title>
<path fill="none" stroke="black" d="M1300.85,-215.697C1296.6,-207.644 1291.44,-197.894 1286.73,-188.982"/>
<polygon fill="black" stroke="black" points="1289.81,-187.31 1282.04,-180.104 1283.62,-190.581 1289.81,-187.31"/>
</g>
<!-- baum.Ast@e91f5d -->
<g id="node44" class="node"><title>baum.Ast@e91f5d</title>
<polygon fill="lightgray" stroke="lightgray" points="1374,-180 1320,-180 1320,-144 1374,-144 1374,-180"/>
<text text-anchor="middle" x="1347" y="-158.3" font-family="Times New Roman,serif" font-size="14.00">4</text>
</g>
<!-- baum.Ast@12c7568&#45;&gt;baum.Ast@e91f5d -->
<g id="edge38" class="edge"><title>baum.Ast@12c7568&#45;&gt;baum.Ast@e91f5d</title>
<path fill="none" stroke="black" d="M1319.15,-215.697C1323.4,-207.644 1328.56,-197.894 1333.27,-188.982"/>
<polygon fill="black" stroke="black" points="1336.38,-190.581 1337.96,-180.104 1330.19,-187.31 1336.38,-190.581"/>
</g>
<!-- baum.Blatt@10a3b24 -->
<g id="node42" class="node"><title>baum.Blatt@10a3b24</title>
<ellipse fill="#00b247" stroke="#00b247" cx="1199" cy="-90" rx="27" ry="18"/>
<text text-anchor="middle" x="1199" y="-86.3" font-family="Times New Roman,serif" font-size="14.00">a &#45; 3</text>
</g>
<!-- baum.Ast@12d15a9&#45;&gt;baum.Blatt@10a3b24 -->
<g id="edge33" class="edge"><title>baum.Ast@12d15a9&#45;&gt;baum.Blatt@10a3b24</title>
<path fill="none" stroke="black" d="M1254.71,-143.697C1244.65,-134.184 1232.09,-122.304 1221.45,-112.233"/>
<polygon fill="black" stroke="black" points="1223.76,-109.608 1214.09,-105.279 1218.95,-114.694 1223.76,-109.608"/>
</g>
<!-- baum.Blatt@b0ce8f -->
<g id="node43" class="node"><title>baum.Blatt@b0ce8f</title>
<ellipse fill="#00b247" stroke="#00b247" cx="1273" cy="-90" rx="28.3955" ry="18"/>
<text text-anchor="middle" x="1273" y="-86.3" font-family="Times New Roman,serif" font-size="14.00">B &#45; 2</text>
</g>
<!-- baum.Ast@12d15a9&#45;&gt;baum.Blatt@b0ce8f -->
<g id="edge34" class="edge"><title>baum.Ast@12d15a9&#45;&gt;baum.Blatt@b0ce8f</title>
<path fill="none" stroke="black" d="M1273,-143.697C1273,-135.983 1273,-126.712 1273,-118.112"/>
<polygon fill="black" stroke="black" points="1276.5,-118.104 1273,-108.104 1269.5,-118.104 1276.5,-118.104"/>
</g>
<!-- baum.Blatt@1c92535 -->
<g id="node45" class="node"><title>baum.Blatt@1c92535</title>
<ellipse fill="#00b247" stroke="#00b247" cx="1347" cy="-90" rx="26.949" ry="18"/>
<text text-anchor="middle" x="1347" y="-86.3" font-family="Times New Roman,serif" font-size="14.00">v &#45; 2</text>
</g>
<!-- baum.Ast@e91f5d&#45;&gt;baum.Blatt@1c92535 -->
<g id="edge35" class="edge"><title>baum.Ast@e91f5d&#45;&gt;baum.Blatt@1c92535</title>
<path fill="none" stroke="black" d="M1347,-143.697C1347,-135.983 1347,-126.712 1347,-118.112"/>
<polygon fill="black" stroke="black" points="1350.5,-118.104 1347,-108.104 1343.5,-118.104 1350.5,-118.104"/>
</g>
<!-- baum.Blatt@a9c09e -->
<g id="node46" class="node"><title>baum.Blatt@a9c09e</title>
<ellipse fill="#00b247" stroke="#00b247" cx="1421" cy="-90" rx="28.3955" ry="18"/>
<text text-anchor="middle" x="1421" y="-86.3" font-family="Times New Roman,serif" font-size="14.00">Z &#45; 2</text>
</g>
<!-- baum.Ast@e91f5d&#45;&gt;baum.Blatt@a9c09e -->
<g id="edge36" class="edge"><title>baum.Ast@e91f5d&#45;&gt;baum.Blatt@a9c09e</title>
<path fill="none" stroke="black" d="M1365.29,-143.697C1375.35,-134.184 1387.91,-122.304 1398.55,-112.233"/>
<polygon fill="black" stroke="black" points="1401.05,-114.694 1405.91,-105.279 1396.24,-109.608 1401.05,-114.694"/>
</g>
<!-- baum.Ast@a4e743 -->
<g id="node48" class="node"><title>baum.Ast@a4e743</title>
<polygon fill="lightgray" stroke="lightgray" points="1558,-180 1504,-180 1504,-144 1558,-144 1558,-180"/>
<text text-anchor="middle" x="1531" y="-158.3" font-family="Times New Roman,serif" font-size="14.00">4</text>
</g>
<!-- baum.Ast@1d009b4&#45;&gt;baum.Ast@a4e743 -->
<g id="edge51" class="edge"><title>baum.Ast@1d009b4&#45;&gt;baum.Ast@a4e743</title>
<path fill="none" stroke="black" d="M1531,-215.697C1531,-207.983 1531,-198.712 1531,-190.112"/>
<polygon fill="black" stroke="black" points="1534.5,-190.104 1531,-180.104 1527.5,-190.104 1534.5,-190.104"/>
</g>
<!-- baum.Ast@4aeb52 -->
<g id="node55" class="node"><title>baum.Ast@4aeb52</title>
<polygon fill="lightgray" stroke="lightgray" points="1782,-180 1728,-180 1728,-144 1782,-144 1782,-180"/>
<text text-anchor="middle" x="1755" y="-158.3" font-family="Times New Roman,serif" font-size="14.00">4</text>
</g>
<!-- baum.Ast@1d009b4&#45;&gt;baum.Ast@4aeb52 -->
<g id="edge52" class="edge"><title>baum.Ast@1d009b4&#45;&gt;baum.Ast@4aeb52</title>
<path fill="none" stroke="black" d="M1558.02,-224.556C1598.05,-212.048 1673.2,-188.562 1718.22,-174.495"/>
<polygon fill="black" stroke="black" points="1719.38,-177.797 1727.88,-171.474 1717.3,-171.116 1719.38,-177.797"/>
</g>
<!-- baum.Ast@9f671b -->
<g id="node49" class="node"><title>baum.Ast@9f671b</title>
<polygon fill="lightgray" stroke="lightgray" points="1522,-108 1468,-108 1468,-72 1522,-72 1522,-108"/>
<text text-anchor="middle" x="1495" y="-86.3" font-family="Times New Roman,serif" font-size="14.00">2</text>
</g>
<!-- baum.Ast@a4e743&#45;&gt;baum.Ast@9f671b -->
<g id="edge43" class="edge"><title>baum.Ast@a4e743&#45;&gt;baum.Ast@9f671b</title>
<path fill="none" stroke="black" d="M1522.1,-143.697C1518,-135.728 1513.05,-126.1 1508.51,-117.264"/>
<polygon fill="black" stroke="black" points="1511.48,-115.396 1503.8,-108.104 1505.26,-118.598 1511.48,-115.396"/>
</g>
<!-- baum.Ast@12a3793 -->
<g id="node52" class="node"><title>baum.Ast@12a3793</title>
<polygon fill="lightgray" stroke="lightgray" points="1595,-108 1541,-108 1541,-72 1595,-72 1595,-108"/>
<text text-anchor="middle" x="1568" y="-86.3" font-family="Times New Roman,serif" font-size="14.00">2</text>
</g>
<!-- baum.Ast@a4e743&#45;&gt;baum.Ast@12a3793 -->
<g id="edge44" class="edge"><title>baum.Ast@a4e743&#45;&gt;baum.Ast@12a3793</title>
<path fill="none" stroke="black" d="M1540.15,-143.697C1544.4,-135.644 1549.56,-125.894 1554.27,-116.982"/>
<polygon fill="black" stroke="black" points="1557.38,-118.581 1558.96,-108.104 1551.19,-115.31 1557.38,-118.581"/>
</g>
<!-- baum.Blatt@a6d51e -->
<g id="node50" class="node"><title>baum.Blatt@a6d51e</title>
<ellipse fill="#00b247" stroke="#00b247" cx="1420" cy="-18" rx="29.3722" ry="18"/>
<text text-anchor="middle" x="1420" y="-14.3" font-family="Times New Roman,serif" font-size="14.00">D &#45; 1</text>
</g>
<!-- baum.Ast@9f671b&#45;&gt;baum.Blatt@a6d51e -->
<g id="edge39" class="edge"><title>baum.Ast@9f671b&#45;&gt;baum.Blatt@a6d51e</title>
<path fill="none" stroke="black" d="M1476.46,-71.6966C1466.41,-62.3139 1453.89,-50.6286 1443.19,-40.6476"/>
<polygon fill="black" stroke="black" points="1445.49,-38.0028 1435.79,-33.7383 1440.71,-43.1202 1445.49,-38.0028"/>
</g>
<!-- baum.Blatt@f1bb78 -->
<g id="node51" class="node"><title>baum.Blatt@f1bb78</title>
<ellipse fill="#00b247" stroke="#00b247" cx="1494" cy="-18" rx="27" ry="18"/>
<text text-anchor="middle" x="1494" y="-14.3" font-family="Times New Roman,serif" font-size="14.00">I &#45; 1</text>
</g>
<!-- baum.Ast@9f671b&#45;&gt;baum.Blatt@f1bb78 -->
<g id="edge40" class="edge"><title>baum.Ast@9f671b&#45;&gt;baum.Blatt@f1bb78</title>
<path fill="none" stroke="black" d="M1494.75,-71.6966C1494.64,-63.9827 1494.51,-54.7125 1494.39,-46.1124"/>
<polygon fill="black" stroke="black" points="1497.89,-46.0533 1494.24,-36.1043 1490.89,-46.1533 1497.89,-46.0533"/>
</g>
<!-- baum.Blatt@4b035d -->
<g id="node53" class="node"><title>baum.Blatt@4b035d</title>
<ellipse fill="#00b247" stroke="#00b247" cx="1568" cy="-18" rx="28.3955" ry="18"/>
<text text-anchor="middle" x="1568" y="-14.3" font-family="Times New Roman,serif" font-size="14.00">T &#45; 1</text>
</g>
<!-- baum.Ast@12a3793&#45;&gt;baum.Blatt@4b035d -->
<g id="edge41" class="edge"><title>baum.Ast@12a3793&#45;&gt;baum.Blatt@4b035d</title>
<path fill="none" stroke="black" d="M1568,-71.6966C1568,-63.9827 1568,-54.7125 1568,-46.1124"/>
<polygon fill="black" stroke="black" points="1571.5,-46.1043 1568,-36.1043 1564.5,-46.1044 1571.5,-46.1043"/>
</g>
<!-- baum.Blatt@ca0115 -->
<g id="node54" class="node"><title>baum.Blatt@ca0115</title>
<ellipse fill="#00b247" stroke="#00b247" cx="1644" cy="-18" rx="29.3722" ry="18"/>
<text text-anchor="middle" x="1644" y="-14.3" font-family="Times New Roman,serif" font-size="14.00">V &#45; 1</text>
</g>
<!-- baum.Ast@12a3793&#45;&gt;baum.Blatt@ca0115 -->
<g id="edge42" class="edge"><title>baum.Ast@12a3793&#45;&gt;baum.Blatt@ca0115</title>
<path fill="none" stroke="black" d="M1586.79,-71.6966C1597.11,-62.1836 1610.01,-50.3036 1620.95,-40.2327"/>
<polygon fill="black" stroke="black" points="1623.51,-42.6282 1628.5,-33.279 1618.77,-37.4793 1623.51,-42.6282"/>
</g>
<!-- baum.Ast@d1fa5 -->
<g id="node56" class="node"><title>baum.Ast@d1fa5</title>
<polygon fill="lightgray" stroke="lightgray" points="1782,-108 1728,-108 1728,-72 1782,-72 1782,-108"/>
<text text-anchor="middle" x="1755" y="-86.3" font-family="Times New Roman,serif" font-size="14.00">2</text>
</g>
<!-- baum.Ast@4aeb52&#45;&gt;baum.Ast@d1fa5 -->
<g id="edge49" class="edge"><title>baum.Ast@4aeb52&#45;&gt;baum.Ast@d1fa5</title>
<path fill="none" stroke="black" d="M1755,-143.697C1755,-135.983 1755,-126.712 1755,-118.112"/>
<polygon fill="black" stroke="black" points="1758.5,-118.104 1755,-108.104 1751.5,-118.104 1758.5,-118.104"/>
</g>
<!-- baum.Ast@198a455 -->
<g id="node59" class="node"><title>baum.Ast@198a455</title>
<polygon fill="lightgray" stroke="lightgray" points="1891,-108 1837,-108 1837,-72 1891,-72 1891,-108"/>
<text text-anchor="middle" x="1864" y="-86.3" font-family="Times New Roman,serif" font-size="14.00">2</text>
</g>
<!-- baum.Ast@4aeb52&#45;&gt;baum.Ast@198a455 -->
<g id="edge50" class="edge"><title>baum.Ast@4aeb52&#45;&gt;baum.Ast@198a455</title>
<path fill="none" stroke="black" d="M1781.66,-143.876C1795.78,-134.808 1813.31,-123.552 1828.56,-113.759"/>
<polygon fill="black" stroke="black" points="1830.71,-116.538 1837.23,-108.19 1826.93,-110.648 1830.71,-116.538"/>
</g>
<!-- baum.Blatt@4cee32 -->
<g id="node57" class="node"><title>baum.Blatt@4cee32</title>
<ellipse fill="#00b247" stroke="#00b247" cx="1719" cy="-18" rx="27.4223" ry="18"/>
<text text-anchor="middle" x="1719" y="-14.3" font-family="Times New Roman,serif" font-size="14.00">b &#45; 1</text>
</g>
<!-- baum.Ast@d1fa5&#45;&gt;baum.Blatt@4cee32 -->
<g id="edge45" class="edge"><title>baum.Ast@d1fa5&#45;&gt;baum.Blatt@4cee32</title>
<path fill="none" stroke="black" d="M1746.1,-71.6966C1741.9,-63.5234 1736.8,-53.6031 1732.16,-44.5839"/>
<polygon fill="black" stroke="black" points="1735.23,-42.9145 1727.55,-35.6223 1729.01,-46.1159 1735.23,-42.9145"/>
</g>
<!-- baum.Blatt@aa37a6 -->
<g id="node58" class="node"><title>baum.Blatt@aa37a6</title>
<ellipse fill="#00b247" stroke="#00b247" cx="1792" cy="-18" rx="27" ry="18"/>
<text text-anchor="middle" x="1792" y="-14.3" font-family="Times New Roman,serif" font-size="14.00">f &#45; 1</text>
</g>
<!-- baum.Ast@d1fa5&#45;&gt;baum.Blatt@aa37a6 -->
<g id="edge46" class="edge"><title>baum.Ast@d1fa5&#45;&gt;baum.Blatt@aa37a6</title>
<path fill="none" stroke="black" d="M1764.15,-71.6966C1768.53,-63.4033 1773.86,-53.3109 1778.69,-44.1866"/>
<polygon fill="black" stroke="black" points="1781.89,-45.6211 1783.47,-35.1446 1775.7,-42.3499 1781.89,-45.6211"/>
</g>
<!-- baum.Blatt@12b7eea -->
<g id="node60" class="node"><title>baum.Blatt@12b7eea</title>
<ellipse fill="#00b247" stroke="#00b247" cx="1864" cy="-18" rx="26.949" ry="18"/>
<text text-anchor="middle" x="1864" y="-14.3" font-family="Times New Roman,serif" font-size="14.00">k &#45; 1</text>
</g>
<!-- baum.Ast@198a455&#45;&gt;baum.Blatt@12b7eea -->
<g id="edge47" class="edge"><title>baum.Ast@198a455&#45;&gt;baum.Blatt@12b7eea</title>
<path fill="none" stroke="black" d="M1864,-71.6966C1864,-63.9827 1864,-54.7125 1864,-46.1124"/>
<polygon fill="black" stroke="black" points="1867.5,-46.1043 1864,-36.1043 1860.5,-46.1044 1867.5,-46.1043"/>
</g>
<!-- baum.Blatt@99353f -->
<g id="node61" class="node"><title>baum.Blatt@99353f</title>
<ellipse fill="#00b247" stroke="#00b247" cx="1937" cy="-18" rx="27.4223" ry="18"/>
<text text-anchor="middle" x="1937" y="-14.3" font-family="Times New Roman,serif" font-size="14.00">p &#45; 1</text>
</g>
<!-- baum.Ast@198a455&#45;&gt;baum.Blatt@99353f -->
<g id="edge48" class="edge"><title>baum.Ast@198a455&#45;&gt;baum.Blatt@99353f</title>
<path fill="none" stroke="black" d="M1882.04,-71.6966C1891.97,-62.1836 1904.35,-50.3036 1914.86,-40.2327"/>
<polygon fill="black" stroke="black" points="1917.31,-42.7264 1922.11,-33.279 1912.47,-37.6739 1917.31,-42.7264"/>
</g>
</g>
</svg>
