<?xml version="1.0" encoding="UTF-8" standalone="no"?>
<!DOCTYPE svg PUBLIC "-//W3C//DTD SVG 1.1//EN"
 "http://www.w3.org/Graphics/SVG/1.1/DTD/svg11.dtd">
<!-- Generated by graphviz version 2.34.0 (20130907.0111)
 -->
<!-- Title: g Pages: 1 -->
<svg width="1341pt" height="620pt"
 viewBox="0.00 0.00 1341.00 620.00" xmlns="http://www.w3.org/2000/svg" xmlns:xlink="http://www.w3.org/1999/xlink">
<g id="graph0" class="graph" transform="scale(1 1) rotate(0) translate(4 616)">
<title>g</title>
<defs>
<linearGradient id="l_0" gradientUnits="userSpaceOnUse" x1="666.5" y1="-616" x2="666.5" y2="4" >
<stop offset="0" style="stop-color:white;stop-opacity:1.;"/>
<stop offset="1" style="stop-color:lightblue;stop-opacity:1.;"/>
</linearGradient>
</defs>
<polygon fill="url(#l_0)" stroke="none" points="-4,4 -4,-616 1337,-616 1337,4 -4,4"/>
<!-- baum.Knoten@c24c0 -->
<g id="node1" class="node"><title>baum.Knoten@c24c0</title>
<polygon fill="lightgray" stroke="lightgray" points="400,-612 346,-612 346,-576 400,-576 400,-612"/>
<text text-anchor="middle" x="373" y="-590.3" font-family="Times New Roman,serif" font-size="14.00">164</text>
</g>
<!-- baum.Knoten@1ee3914 -->
<g id="node2" class="node"><title>baum.Knoten@1ee3914</title>
<polygon fill="lightgray" stroke="lightgray" points="234,-540 180,-540 180,-504 234,-504 234,-540"/>
<text text-anchor="middle" x="207" y="-518.3" font-family="Times New Roman,serif" font-size="14.00">55</text>
</g>
<!-- baum.Knoten@c24c0&#45;&gt;baum.Knoten@1ee3914 -->
<g id="edge59" class="edge"><title>baum.Knoten@c24c0&#45;&gt;baum.Knoten@1ee3914</title>
<path fill="none" stroke="black" d="M345.96,-581.597C318.106,-569.852 274.513,-551.469 243.588,-538.429"/>
<polygon fill="black" stroke="black" points="244.603,-535.058 234.029,-534.398 241.883,-541.508 244.603,-535.058"/>
</g>
<!-- baum.Knoten@140c281 -->
<g id="node17" class="node"><title>baum.Knoten@140c281</title>
<polygon fill="lightgray" stroke="lightgray" points="492,-540 438,-540 438,-504 492,-504 492,-540"/>
<text text-anchor="middle" x="465" y="-518.3" font-family="Times New Roman,serif" font-size="14.00">109</text>
</g>
<!-- baum.Knoten@c24c0&#45;&gt;baum.Knoten@140c281 -->
<g id="edge60" class="edge"><title>baum.Knoten@c24c0&#45;&gt;baum.Knoten@140c281</title>
<path fill="none" stroke="black" d="M395.742,-575.697C407.44,-566.796 421.861,-555.823 434.51,-546.199"/>
<polygon fill="black" stroke="black" points="436.681,-548.945 442.52,-540.104 432.442,-543.374 436.681,-548.945"/>
</g>
<!-- baum.Blatt@21b6d -->
<g id="node3" class="node"><title>baum.Blatt@21b6d</title>
<ellipse fill="#00b247" stroke="#00b247" cx="132" cy="-450" rx="29.3479" ry="18"/>
<text text-anchor="middle" x="132" y="-446.3" font-family="Times New Roman,serif" font-size="14.00"> &#160;&#45; 24</text>
</g>
<!-- baum.Knoten@1ee3914&#45;&gt;baum.Blatt@21b6d -->
<g id="edge13" class="edge"><title>baum.Knoten@1ee3914&#45;&gt;baum.Blatt@21b6d</title>
<path fill="none" stroke="black" d="M188.461,-503.697C178.408,-494.314 165.888,-482.629 155.194,-472.648"/>
<polygon fill="black" stroke="black" points="157.49,-470.003 147.791,-465.738 152.713,-475.12 157.49,-470.003"/>
</g>
<!-- baum.Knoten@176c74b -->
<g id="node4" class="node"><title>baum.Knoten@176c74b</title>
<polygon fill="lightgray" stroke="lightgray" points="234,-468 180,-468 180,-432 234,-432 234,-468"/>
<text text-anchor="middle" x="207" y="-446.3" font-family="Times New Roman,serif" font-size="14.00">31</text>
</g>
<!-- baum.Knoten@1ee3914&#45;&gt;baum.Knoten@176c74b -->
<g id="edge14" class="edge"><title>baum.Knoten@1ee3914&#45;&gt;baum.Knoten@176c74b</title>
<path fill="none" stroke="black" d="M207,-503.697C207,-495.983 207,-486.712 207,-478.112"/>
<polygon fill="black" stroke="black" points="210.5,-478.104 207,-468.104 203.5,-478.104 210.5,-478.104"/>
</g>
<!-- baum.Knoten@1e97676 -->
<g id="node5" class="node"><title>baum.Knoten@1e97676</title>
<polygon fill="lightgray" stroke="lightgray" points="126,-396 72,-396 72,-360 126,-360 126,-396"/>
<text text-anchor="middle" x="99" y="-374.3" font-family="Times New Roman,serif" font-size="14.00">13</text>
</g>
<!-- baum.Knoten@176c74b&#45;&gt;baum.Knoten@1e97676 -->
<g id="edge11" class="edge"><title>baum.Knoten@176c74b&#45;&gt;baum.Knoten@1e97676</title>
<path fill="none" stroke="black" d="M180.58,-431.876C166.59,-422.808 149.224,-411.552 134.114,-401.759"/>
<polygon fill="black" stroke="black" points="135.817,-398.692 125.521,-396.19 132.009,-404.566 135.817,-398.692"/>
</g>
<!-- baum.Knoten@540408 -->
<g id="node8" class="node"><title>baum.Knoten@540408</title>
<polygon fill="lightgray" stroke="lightgray" points="234,-396 180,-396 180,-360 234,-360 234,-396"/>
<text text-anchor="middle" x="207" y="-374.3" font-family="Times New Roman,serif" font-size="14.00">18</text>
</g>
<!-- baum.Knoten@176c74b&#45;&gt;baum.Knoten@540408 -->
<g id="edge12" class="edge"><title>baum.Knoten@176c74b&#45;&gt;baum.Knoten@540408</title>
<path fill="none" stroke="black" d="M207,-431.697C207,-423.983 207,-414.712 207,-406.112"/>
<polygon fill="black" stroke="black" points="210.5,-406.104 207,-396.104 203.5,-406.104 210.5,-406.104"/>
</g>
<!-- baum.Blatt@e102dc -->
<g id="node6" class="node"><title>baum.Blatt@e102dc</title>
<ellipse fill="#00b247" stroke="#00b247" cx="27" cy="-306" rx="27" ry="18"/>
<text text-anchor="middle" x="27" y="-302.3" font-family="Times New Roman,serif" font-size="14.00">a &#45; 6</text>
</g>
<!-- baum.Knoten@1e97676&#45;&gt;baum.Blatt@e102dc -->
<g id="edge1" class="edge"><title>baum.Knoten@1e97676&#45;&gt;baum.Blatt@e102dc</title>
<path fill="none" stroke="black" d="M81.2022,-359.697C71.5124,-350.276 59.435,-338.534 49.1416,-328.527"/>
<polygon fill="black" stroke="black" points="51.2967,-325.74 41.6869,-321.279 46.4171,-330.759 51.2967,-325.74"/>
</g>
<!-- baum.Blatt@1e0be38 -->
<g id="node7" class="node"><title>baum.Blatt@1e0be38</title>
<ellipse fill="#00b247" stroke="#00b247" cx="99" cy="-306" rx="27" ry="18"/>
<text text-anchor="middle" x="99" y="-302.3" font-family="Times New Roman,serif" font-size="14.00">t &#45; 7</text>
</g>
<!-- baum.Knoten@1e97676&#45;&gt;baum.Blatt@1e0be38 -->
<g id="edge2" class="edge"><title>baum.Knoten@1e97676&#45;&gt;baum.Blatt@1e0be38</title>
<path fill="none" stroke="black" d="M99,-359.697C99,-351.983 99,-342.712 99,-334.112"/>
<polygon fill="black" stroke="black" points="102.5,-334.104 99,-324.104 95.5001,-334.104 102.5,-334.104"/>
</g>
<!-- baum.Blatt@c9ba38 -->
<g id="node9" class="node"><title>baum.Blatt@c9ba38</title>
<ellipse fill="#00b247" stroke="#00b247" cx="171" cy="-306" rx="26.949" ry="18"/>
<text text-anchor="middle" x="171" y="-302.3" font-family="Times New Roman,serif" font-size="14.00">u &#45; 8</text>
</g>
<!-- baum.Knoten@540408&#45;&gt;baum.Blatt@c9ba38 -->
<g id="edge9" class="edge"><title>baum.Knoten@540408&#45;&gt;baum.Blatt@c9ba38</title>
<path fill="none" stroke="black" d="M198.101,-359.697C193.836,-351.403 188.646,-341.311 183.953,-332.187"/>
<polygon fill="black" stroke="black" points="186.989,-330.437 179.303,-323.145 180.764,-333.638 186.989,-330.437"/>
</g>
<!-- baum.Knoten@13bad12 -->
<g id="node10" class="node"><title>baum.Knoten@13bad12</title>
<polygon fill="lightgray" stroke="lightgray" points="270,-324 216,-324 216,-288 270,-288 270,-324"/>
<text text-anchor="middle" x="243" y="-302.3" font-family="Times New Roman,serif" font-size="14.00">10</text>
</g>
<!-- baum.Knoten@540408&#45;&gt;baum.Knoten@13bad12 -->
<g id="edge10" class="edge"><title>baum.Knoten@540408&#45;&gt;baum.Knoten@13bad12</title>
<path fill="none" stroke="black" d="M215.899,-359.697C219.997,-351.728 224.949,-342.1 229.493,-333.264"/>
<polygon fill="black" stroke="black" points="232.742,-334.598 234.203,-324.104 226.517,-331.396 232.742,-334.598"/>
</g>
<!-- baum.Blatt@9ed927 -->
<g id="node11" class="node"><title>baum.Blatt@9ed927</title>
<ellipse fill="#00b247" stroke="#00b247" cx="168" cy="-234" rx="29.3479" ry="18"/>
<text text-anchor="middle" x="168" y="-230.3" font-family="Times New Roman,serif" font-size="14.00">m &#45; 5</text>
</g>
<!-- baum.Knoten@13bad12&#45;&gt;baum.Blatt@9ed927 -->
<g id="edge7" class="edge"><title>baum.Knoten@13bad12&#45;&gt;baum.Blatt@9ed927</title>
<path fill="none" stroke="black" d="M224.461,-287.697C214.408,-278.314 201.888,-266.629 191.194,-256.648"/>
<polygon fill="black" stroke="black" points="193.49,-254.003 183.791,-249.738 188.713,-259.12 193.49,-254.003"/>
</g>
<!-- baum.Knoten@18a7efd -->
<g id="node12" class="node"><title>baum.Knoten@18a7efd</title>
<polygon fill="lightgray" stroke="lightgray" points="270,-252 216,-252 216,-216 270,-216 270,-252"/>
<text text-anchor="middle" x="243" y="-230.3" font-family="Times New Roman,serif" font-size="14.00">5</text>
</g>
<!-- baum.Knoten@13bad12&#45;&gt;baum.Knoten@18a7efd -->
<g id="edge8" class="edge"><title>baum.Knoten@13bad12&#45;&gt;baum.Knoten@18a7efd</title>
<path fill="none" stroke="black" d="M243,-287.697C243,-279.983 243,-270.712 243,-262.112"/>
<polygon fill="black" stroke="black" points="246.5,-262.104 243,-252.104 239.5,-262.104 246.5,-262.104"/>
</g>
<!-- baum.Knoten@efd552 -->
<g id="node13" class="node"><title>baum.Knoten@efd552</title>
<polygon fill="lightgray" stroke="lightgray" points="233,-180 179,-180 179,-144 233,-144 233,-180"/>
<text text-anchor="middle" x="206" y="-158.3" font-family="Times New Roman,serif" font-size="14.00">2</text>
</g>
<!-- baum.Knoten@18a7efd&#45;&gt;baum.Knoten@efd552 -->
<g id="edge5" class="edge"><title>baum.Knoten@18a7efd&#45;&gt;baum.Knoten@efd552</title>
<path fill="none" stroke="black" d="M233.854,-215.697C229.597,-207.644 224.444,-197.894 219.734,-188.982"/>
<polygon fill="black" stroke="black" points="222.808,-187.31 215.041,-180.104 216.62,-190.581 222.808,-187.31"/>
</g>
<!-- baum.Blatt@13582d -->
<g id="node16" class="node"><title>baum.Blatt@13582d</title>
<ellipse fill="#00b247" stroke="#00b247" cx="280" cy="-162" rx="28.3955" ry="18"/>
<text text-anchor="middle" x="280" y="-158.3" font-family="Times New Roman,serif" font-size="14.00">S &#45; 3</text>
</g>
<!-- baum.Knoten@18a7efd&#45;&gt;baum.Blatt@13582d -->
<g id="edge6" class="edge"><title>baum.Knoten@18a7efd&#45;&gt;baum.Blatt@13582d</title>
<path fill="none" stroke="black" d="M252.146,-215.697C256.466,-207.523 261.71,-197.603 266.477,-188.584"/>
<polygon fill="black" stroke="black" points="269.635,-190.099 271.214,-179.622 263.446,-186.828 269.635,-190.099"/>
</g>
<!-- baum.Blatt@1e859c0 -->
<g id="node14" class="node"><title>baum.Blatt@1e859c0</title>
<ellipse fill="#00b247" stroke="#00b247" cx="169" cy="-90" rx="29.3722" ry="18"/>
<text text-anchor="middle" x="169" y="-86.3" font-family="Times New Roman,serif" font-size="14.00">D &#45; 1</text>
</g>
<!-- baum.Knoten@efd552&#45;&gt;baum.Blatt@1e859c0 -->
<g id="edge3" class="edge"><title>baum.Knoten@efd552&#45;&gt;baum.Blatt@1e859c0</title>
<path fill="none" stroke="black" d="M196.854,-143.697C192.534,-135.523 187.29,-125.603 182.523,-116.584"/>
<polygon fill="black" stroke="black" points="185.554,-114.828 177.786,-107.622 179.365,-118.099 185.554,-114.828"/>
</g>
<!-- baum.Blatt@1837697 -->
<g id="node15" class="node"><title>baum.Blatt@1837697</title>
<ellipse fill="#00b247" stroke="#00b247" cx="243" cy="-90" rx="27" ry="18"/>
<text text-anchor="middle" x="243" y="-86.3" font-family="Times New Roman,serif" font-size="14.00">f &#45; 1</text>
</g>
<!-- baum.Knoten@efd552&#45;&gt;baum.Blatt@1837697 -->
<g id="edge4" class="edge"><title>baum.Knoten@efd552&#45;&gt;baum.Blatt@1837697</title>
<path fill="none" stroke="black" d="M215.146,-143.697C219.53,-135.403 224.864,-125.311 229.687,-116.187"/>
<polygon fill="black" stroke="black" points="232.888,-117.621 234.466,-107.145 226.699,-114.35 232.888,-117.621"/>
</g>
<!-- baum.Knoten@116471f -->
<g id="node18" class="node"><title>baum.Knoten@116471f</title>
<polygon fill="lightgray" stroke="lightgray" points="492,-468 438,-468 438,-432 492,-432 492,-468"/>
<text text-anchor="middle" x="465" y="-446.3" font-family="Times New Roman,serif" font-size="14.00">39</text>
</g>
<!-- baum.Knoten@140c281&#45;&gt;baum.Knoten@116471f -->
<g id="edge57" class="edge"><title>baum.Knoten@140c281&#45;&gt;baum.Knoten@116471f</title>
<path fill="none" stroke="black" d="M465,-503.697C465,-495.983 465,-486.712 465,-478.112"/>
<polygon fill="black" stroke="black" points="468.5,-478.104 465,-468.104 461.5,-478.104 468.5,-478.104"/>
</g>
<!-- baum.Knoten@e5855a -->
<g id="node27" class="node"><title>baum.Knoten@e5855a</title>
<polygon fill="lightgray" stroke="lightgray" points="762,-468 708,-468 708,-432 762,-432 762,-468"/>
<text text-anchor="middle" x="735" y="-446.3" font-family="Times New Roman,serif" font-size="14.00">70</text>
</g>
<!-- baum.Knoten@140c281&#45;&gt;baum.Knoten@e5855a -->
<g id="edge58" class="edge"><title>baum.Knoten@140c281&#45;&gt;baum.Knoten@e5855a</title>
<path fill="none" stroke="black" d="M492.125,-513.968C540.845,-501.337 643.205,-474.799 698.199,-460.541"/>
<polygon fill="black" stroke="black" points="699.092,-463.925 707.893,-458.028 697.335,-457.149 699.092,-463.925"/>
</g>
<!-- baum.Knoten@19106c7 -->
<g id="node19" class="node"><title>baum.Knoten@19106c7</title>
<polygon fill="lightgray" stroke="lightgray" points="454,-396 400,-396 400,-360 454,-360 454,-396"/>
<text text-anchor="middle" x="427" y="-374.3" font-family="Times New Roman,serif" font-size="14.00">16</text>
</g>
<!-- baum.Knoten@116471f&#45;&gt;baum.Knoten@19106c7 -->
<g id="edge21" class="edge"><title>baum.Knoten@116471f&#45;&gt;baum.Knoten@19106c7</title>
<path fill="none" stroke="black" d="M455.607,-431.697C451.235,-423.644 445.943,-413.894 441.105,-404.982"/>
<polygon fill="black" stroke="black" points="444.132,-403.223 436.285,-396.104 437.98,-406.563 444.132,-403.223"/>
</g>
<!-- baum.Blatt@1decdec -->
<g id="node26" class="node"><title>baum.Blatt@1decdec</title>
<ellipse fill="#00b247" stroke="#00b247" cx="503" cy="-378" rx="31.2965" ry="18"/>
<text text-anchor="middle" x="503" y="-374.3" font-family="Times New Roman,serif" font-size="14.00">e &#45; 23</text>
</g>
<!-- baum.Knoten@116471f&#45;&gt;baum.Blatt@1decdec -->
<g id="edge22" class="edge"><title>baum.Knoten@116471f&#45;&gt;baum.Blatt@1decdec</title>
<path fill="none" stroke="black" d="M474.393,-431.697C478.83,-423.523 484.215,-413.603 489.112,-404.584"/>
<polygon fill="black" stroke="black" points="492.281,-406.081 493.976,-395.622 486.13,-402.741 492.281,-406.081"/>
</g>
<!-- baum.Knoten@cdedfd -->
<g id="node20" class="node"><title>baum.Knoten@cdedfd</title>
<polygon fill="lightgray" stroke="lightgray" points="417,-324 363,-324 363,-288 417,-288 417,-324"/>
<text text-anchor="middle" x="390" y="-302.3" font-family="Times New Roman,serif" font-size="14.00">7</text>
</g>
<!-- baum.Knoten@19106c7&#45;&gt;baum.Knoten@cdedfd -->
<g id="edge19" class="edge"><title>baum.Knoten@19106c7&#45;&gt;baum.Knoten@cdedfd</title>
<path fill="none" stroke="black" d="M417.854,-359.697C413.597,-351.644 408.444,-341.894 403.734,-332.982"/>
<polygon fill="black" stroke="black" points="406.808,-331.31 399.041,-324.104 400.62,-334.581 406.808,-331.31"/>
</g>
<!-- baum.Knoten@bf2d5e -->
<g id="node23" class="node"><title>baum.Knoten@bf2d5e</title>
<polygon fill="lightgray" stroke="lightgray" points="491,-324 437,-324 437,-288 491,-288 491,-324"/>
<text text-anchor="middle" x="464" y="-302.3" font-family="Times New Roman,serif" font-size="14.00">9</text>
</g>
<!-- baum.Knoten@19106c7&#45;&gt;baum.Knoten@bf2d5e -->
<g id="edge20" class="edge"><title>baum.Knoten@19106c7&#45;&gt;baum.Knoten@bf2d5e</title>
<path fill="none" stroke="black" d="M436.146,-359.697C440.403,-351.644 445.556,-341.894 450.266,-332.982"/>
<polygon fill="black" stroke="black" points="453.38,-334.581 454.959,-324.104 447.192,-331.31 453.38,-334.581"/>
</g>
<!-- baum.Blatt@cdfc9c -->
<g id="node21" class="node"><title>baum.Blatt@cdfc9c</title>
<ellipse fill="#00b247" stroke="#00b247" cx="315" cy="-234" rx="26.949" ry="18"/>
<text text-anchor="middle" x="315" y="-230.3" font-family="Times New Roman,serif" font-size="14.00">g &#45; 3</text>
</g>
<!-- baum.Knoten@cdedfd&#45;&gt;baum.Blatt@cdfc9c -->
<g id="edge15" class="edge"><title>baum.Knoten@cdedfd&#45;&gt;baum.Blatt@cdfc9c</title>
<path fill="none" stroke="black" d="M371.461,-287.697C361.268,-278.184 348.54,-266.304 337.749,-256.233"/>
<polygon fill="black" stroke="black" points="339.998,-253.543 330.299,-249.279 335.221,-258.661 339.998,-253.543"/>
</g>
<!-- baum.Blatt@1d99a4d -->
<g id="node22" class="node"><title>baum.Blatt@1d99a4d</title>
<ellipse fill="#00b247" stroke="#00b247" cx="390" cy="-234" rx="29.3722" ry="18"/>
<text text-anchor="middle" x="390" y="-230.3" font-family="Times New Roman,serif" font-size="14.00">w &#45; 4</text>
</g>
<!-- baum.Knoten@cdedfd&#45;&gt;baum.Blatt@1d99a4d -->
<g id="edge16" class="edge"><title>baum.Knoten@cdedfd&#45;&gt;baum.Blatt@1d99a4d</title>
<path fill="none" stroke="black" d="M390,-287.697C390,-279.983 390,-270.712 390,-262.112"/>
<polygon fill="black" stroke="black" points="393.5,-262.104 390,-252.104 386.5,-262.104 393.5,-262.104"/>
</g>
<!-- baum.Blatt@15c7850 -->
<g id="node24" class="node"><title>baum.Blatt@15c7850</title>
<ellipse fill="#00b247" stroke="#00b247" cx="464" cy="-234" rx="27" ry="18"/>
<text text-anchor="middle" x="464" y="-230.3" font-family="Times New Roman,serif" font-size="14.00">s &#45; 4</text>
</g>
<!-- baum.Knoten@bf2d5e&#45;&gt;baum.Blatt@15c7850 -->
<g id="edge17" class="edge"><title>baum.Knoten@bf2d5e&#45;&gt;baum.Blatt@15c7850</title>
<path fill="none" stroke="black" d="M464,-287.697C464,-279.983 464,-270.712 464,-262.112"/>
<polygon fill="black" stroke="black" points="467.5,-262.104 464,-252.104 460.5,-262.104 467.5,-262.104"/>
</g>
<!-- baum.Blatt@fa7e74 -->
<g id="node25" class="node"><title>baum.Blatt@fa7e74</title>
<ellipse fill="#00b247" stroke="#00b247" cx="536" cy="-234" rx="26.949" ry="18"/>
<text text-anchor="middle" x="536" y="-230.3" font-family="Times New Roman,serif" font-size="14.00">c &#45; 5</text>
</g>
<!-- baum.Knoten@bf2d5e&#45;&gt;baum.Blatt@fa7e74 -->
<g id="edge18" class="edge"><title>baum.Knoten@bf2d5e&#45;&gt;baum.Blatt@fa7e74</title>
<path fill="none" stroke="black" d="M481.798,-287.697C491.488,-278.276 503.565,-266.534 513.858,-256.527"/>
<polygon fill="black" stroke="black" points="516.583,-258.759 521.313,-249.279 511.703,-253.74 516.583,-258.759"/>
</g>
<!-- baum.Knoten@34a1fc -->
<g id="node28" class="node"><title>baum.Knoten@34a1fc</title>
<polygon fill="lightgray" stroke="lightgray" points="762,-396 708,-396 708,-360 762,-360 762,-396"/>
<text text-anchor="middle" x="735" y="-374.3" font-family="Times New Roman,serif" font-size="14.00">25</text>
</g>
<!-- baum.Knoten@e5855a&#45;&gt;baum.Knoten@34a1fc -->
<g id="edge55" class="edge"><title>baum.Knoten@e5855a&#45;&gt;baum.Knoten@34a1fc</title>
<path fill="none" stroke="black" d="M735,-431.697C735,-423.983 735,-414.712 735,-406.112"/>
<polygon fill="black" stroke="black" points="738.5,-406.104 735,-396.104 731.5,-406.104 738.5,-406.104"/>
</g>
<!-- baum.Knoten@1975b59 -->
<g id="node49" class="node"><title>baum.Knoten@1975b59</title>
<polygon fill="lightgray" stroke="lightgray" points="1138,-396 1084,-396 1084,-360 1138,-360 1138,-396"/>
<text text-anchor="middle" x="1111" y="-374.3" font-family="Times New Roman,serif" font-size="14.00">45</text>
</g>
<!-- baum.Knoten@e5855a&#45;&gt;baum.Knoten@1975b59 -->
<g id="edge56" class="edge"><title>baum.Knoten@e5855a&#45;&gt;baum.Knoten@1975b59</title>
<path fill="none" stroke="black" d="M762.041,-443.966C828.219,-431.645 998.413,-399.96 1073.94,-385.899"/>
<polygon fill="black" stroke="black" points="1074.76,-389.307 1083.95,-384.036 1073.48,-382.425 1074.76,-389.307"/>
</g>
<!-- baum.Knoten@1632c2d -->
<g id="node29" class="node"><title>baum.Knoten@1632c2d</title>
<polygon fill="lightgray" stroke="lightgray" points="708,-324 654,-324 654,-288 708,-288 708,-324"/>
<text text-anchor="middle" x="681" y="-302.3" font-family="Times New Roman,serif" font-size="14.00">12</text>
</g>
<!-- baum.Knoten@34a1fc&#45;&gt;baum.Knoten@1632c2d -->
<g id="edge41" class="edge"><title>baum.Knoten@34a1fc&#45;&gt;baum.Knoten@1632c2d</title>
<path fill="none" stroke="black" d="M721.652,-359.697C715.243,-351.389 707.442,-341.277 700.394,-332.141"/>
<polygon fill="black" stroke="black" points="703.074,-329.884 694.195,-324.104 697.532,-334.16 703.074,-329.884"/>
</g>
<!-- baum.Knoten@60420f -->
<g id="node34" class="node"><title>baum.Knoten@60420f</title>
<polygon fill="lightgray" stroke="lightgray" points="817,-324 763,-324 763,-288 817,-288 817,-324"/>
<text text-anchor="middle" x="790" y="-302.3" font-family="Times New Roman,serif" font-size="14.00">13</text>
</g>
<!-- baum.Knoten@34a1fc&#45;&gt;baum.Knoten@60420f -->
<g id="edge42" class="edge"><title>baum.Knoten@34a1fc&#45;&gt;baum.Knoten@60420f</title>
<path fill="none" stroke="black" d="M748.596,-359.697C755.123,-351.389 763.068,-341.277 770.247,-332.141"/>
<polygon fill="black" stroke="black" points="773.135,-334.13 776.561,-324.104 767.631,-329.805 773.135,-334.13"/>
</g>
<!-- baum.Blatt@b166b5 -->
<g id="node30" class="node"><title>baum.Blatt@b166b5</title>
<ellipse fill="#00b247" stroke="#00b247" cx="609" cy="-234" rx="26.949" ry="18"/>
<text text-anchor="middle" x="609" y="-230.3" font-family="Times New Roman,serif" font-size="14.00">h &#45; 6</text>
</g>
<!-- baum.Knoten@1632c2d&#45;&gt;baum.Blatt@b166b5 -->
<g id="edge25" class="edge"><title>baum.Knoten@1632c2d&#45;&gt;baum.Blatt@b166b5</title>
<path fill="none" stroke="black" d="M663.202,-287.697C653.512,-278.276 641.435,-266.534 631.142,-256.527"/>
<polygon fill="black" stroke="black" points="633.297,-253.74 623.687,-249.279 628.417,-258.759 633.297,-253.74"/>
</g>
<!-- baum.Knoten@1971afc -->
<g id="node31" class="node"><title>baum.Knoten@1971afc</title>
<polygon fill="lightgray" stroke="lightgray" points="708,-252 654,-252 654,-216 708,-216 708,-252"/>
<text text-anchor="middle" x="681" y="-230.3" font-family="Times New Roman,serif" font-size="14.00">6</text>
</g>
<!-- baum.Knoten@1632c2d&#45;&gt;baum.Knoten@1971afc -->
<g id="edge26" class="edge"><title>baum.Knoten@1632c2d&#45;&gt;baum.Knoten@1971afc</title>
<path fill="none" stroke="black" d="M681,-287.697C681,-279.983 681,-270.712 681,-262.112"/>
<polygon fill="black" stroke="black" points="684.5,-262.104 681,-252.104 677.5,-262.104 684.5,-262.104"/>
</g>
<!-- baum.Blatt@186db54 -->
<g id="node32" class="node"><title>baum.Blatt@186db54</title>
<ellipse fill="#00b247" stroke="#00b247" cx="590" cy="-162" rx="27" ry="18"/>
<text text-anchor="middle" x="590" y="-158.3" font-family="Times New Roman,serif" font-size="14.00">ä &#45; 3</text>
</g>
<!-- baum.Knoten@1971afc&#45;&gt;baum.Blatt@186db54 -->
<g id="edge23" class="edge"><title>baum.Knoten@1971afc&#45;&gt;baum.Blatt@186db54</title>
<path fill="none" stroke="black" d="M658.506,-215.697C645.343,-205.571 628.694,-192.764 615.105,-182.311"/>
<polygon fill="black" stroke="black" points="617.158,-179.475 607.098,-176.152 612.89,-185.024 617.158,-179.475"/>
</g>
<!-- baum.Blatt@c2a132 -->
<g id="node33" class="node"><title>baum.Blatt@c2a132</title>
<ellipse fill="#00b247" stroke="#00b247" cx="662" cy="-162" rx="27" ry="18"/>
<text text-anchor="middle" x="662" y="-158.3" font-family="Times New Roman,serif" font-size="14.00">l &#45; 3</text>
</g>
<!-- baum.Knoten@1971afc&#45;&gt;baum.Blatt@c2a132 -->
<g id="edge24" class="edge"><title>baum.Knoten@1971afc&#45;&gt;baum.Blatt@c2a132</title>
<path fill="none" stroke="black" d="M676.303,-215.697C674.187,-207.898 671.638,-198.509 669.282,-189.829"/>
<polygon fill="black" stroke="black" points="672.64,-188.838 666.643,-180.104 665.884,-190.672 672.64,-188.838"/>
</g>
<!-- baum.Knoten@16cd7d5 -->
<g id="node35" class="node"><title>baum.Knoten@16cd7d5</title>
<polygon fill="lightgray" stroke="lightgray" points="817,-252 763,-252 763,-216 817,-216 817,-252"/>
<text text-anchor="middle" x="790" y="-230.3" font-family="Times New Roman,serif" font-size="14.00">6</text>
</g>
<!-- baum.Knoten@60420f&#45;&gt;baum.Knoten@16cd7d5 -->
<g id="edge39" class="edge"><title>baum.Knoten@60420f&#45;&gt;baum.Knoten@16cd7d5</title>
<path fill="none" stroke="black" d="M790,-287.697C790,-279.983 790,-270.712 790,-262.112"/>
<polygon fill="black" stroke="black" points="793.5,-262.104 790,-252.104 786.5,-262.104 793.5,-262.104"/>
</g>
<!-- baum.Knoten@1c39a2d -->
<g id="node40" class="node"><title>baum.Knoten@1c39a2d</title>
<polygon fill="lightgray" stroke="lightgray" points="927,-252 873,-252 873,-216 927,-216 927,-252"/>
<text text-anchor="middle" x="900" y="-230.3" font-family="Times New Roman,serif" font-size="14.00">7</text>
</g>
<!-- baum.Knoten@60420f&#45;&gt;baum.Knoten@1c39a2d -->
<g id="edge40" class="edge"><title>baum.Knoten@60420f&#45;&gt;baum.Knoten@1c39a2d</title>
<path fill="none" stroke="black" d="M816.909,-287.876C831.158,-278.808 848.846,-267.552 864.236,-257.759"/>
<polygon fill="black" stroke="black" points="866.43,-260.511 872.988,-252.19 862.672,-254.606 866.43,-260.511"/>
</g>
<!-- baum.Blatt@1aaa14a -->
<g id="node36" class="node"><title>baum.Blatt@1aaa14a</title>
<ellipse fill="#00b247" stroke="#00b247" cx="735" cy="-162" rx="27.4223" ry="18"/>
<text text-anchor="middle" x="735" y="-158.3" font-family="Times New Roman,serif" font-size="14.00">o &#45; 3</text>
</g>
<!-- baum.Knoten@16cd7d5&#45;&gt;baum.Blatt@1aaa14a -->
<g id="edge29" class="edge"><title>baum.Knoten@16cd7d5&#45;&gt;baum.Blatt@1aaa14a</title>
<path fill="none" stroke="black" d="M776.404,-215.697C769.515,-206.929 761.047,-196.15 753.567,-186.631"/>
<polygon fill="black" stroke="black" points="756.243,-184.372 747.313,-178.671 750.739,-188.697 756.243,-184.372"/>
</g>
<!-- baum.Knoten@19dfbff -->
<g id="node37" class="node"><title>baum.Knoten@19dfbff</title>
<polygon fill="lightgray" stroke="lightgray" points="835,-180 781,-180 781,-144 835,-144 835,-180"/>
<text text-anchor="middle" x="808" y="-158.3" font-family="Times New Roman,serif" font-size="14.00">3</text>
</g>
<!-- baum.Knoten@16cd7d5&#45;&gt;baum.Knoten@19dfbff -->
<g id="edge30" class="edge"><title>baum.Knoten@16cd7d5&#45;&gt;baum.Knoten@19dfbff</title>
<path fill="none" stroke="black" d="M794.449,-215.697C796.455,-207.898 798.869,-198.509 801.101,-189.829"/>
<polygon fill="black" stroke="black" points="804.501,-190.661 803.602,-180.104 797.722,-188.918 804.501,-190.661"/>
</g>
<!-- baum.Blatt@1e51060 -->
<g id="node38" class="node"><title>baum.Blatt@1e51060</title>
<ellipse fill="#00b247" stroke="#00b247" cx="708" cy="-90" rx="26.949" ry="18"/>
<text text-anchor="middle" x="708" y="-86.3" font-family="Times New Roman,serif" font-size="14.00">k &#45; 1</text>
</g>
<!-- baum.Knoten@19dfbff&#45;&gt;baum.Blatt@1e51060 -->
<g id="edge27" class="edge"><title>baum.Knoten@19dfbff&#45;&gt;baum.Blatt@1e51060</title>
<path fill="none" stroke="black" d="M783.537,-143.876C768.65,-133.455 749.634,-120.144 734.406,-109.484"/>
<polygon fill="black" stroke="black" points="736.137,-106.424 725.938,-103.556 732.123,-112.158 736.137,-106.424"/>
</g>
<!-- baum.Blatt@56a499 -->
<g id="node39" class="node"><title>baum.Blatt@56a499</title>
<ellipse fill="#00b247" stroke="#00b247" cx="780" cy="-90" rx="27" ry="18"/>
<text text-anchor="middle" x="780" y="-86.3" font-family="Times New Roman,serif" font-size="14.00">z &#45; 2</text>
</g>
<!-- baum.Knoten@19dfbff&#45;&gt;baum.Blatt@56a499 -->
<g id="edge28" class="edge"><title>baum.Knoten@19dfbff&#45;&gt;baum.Blatt@56a499</title>
<path fill="none" stroke="black" d="M801.079,-143.697C797.878,-135.696 794.008,-126.02 790.462,-117.155"/>
<polygon fill="black" stroke="black" points="793.613,-115.607 786.649,-107.622 787.113,-118.207 793.613,-115.607"/>
</g>
<!-- baum.Knoten@10b4b2f -->
<g id="node41" class="node"><title>baum.Knoten@10b4b2f</title>
<polygon fill="lightgray" stroke="lightgray" points="927,-180 873,-180 873,-144 927,-144 927,-180"/>
<text text-anchor="middle" x="900" y="-158.3" font-family="Times New Roman,serif" font-size="14.00">3</text>
</g>
<!-- baum.Knoten@1c39a2d&#45;&gt;baum.Knoten@10b4b2f -->
<g id="edge37" class="edge"><title>baum.Knoten@1c39a2d&#45;&gt;baum.Knoten@10b4b2f</title>
<path fill="none" stroke="black" d="M900,-215.697C900,-207.983 900,-198.712 900,-190.112"/>
<polygon fill="black" stroke="black" points="903.5,-190.104 900,-180.104 896.5,-190.104 903.5,-190.104"/>
</g>
<!-- baum.Knoten@750159 -->
<g id="node44" class="node"><title>baum.Knoten@750159</title>
<polygon fill="lightgray" stroke="lightgray" points="1029,-180 975,-180 975,-144 1029,-144 1029,-180"/>
<text text-anchor="middle" x="1002" y="-158.3" font-family="Times New Roman,serif" font-size="14.00">4</text>
</g>
<!-- baum.Knoten@1c39a2d&#45;&gt;baum.Knoten@750159 -->
<g id="edge38" class="edge"><title>baum.Knoten@1c39a2d&#45;&gt;baum.Knoten@750159</title>
<path fill="none" stroke="black" d="M924.952,-215.876C938.042,-206.893 954.26,-195.763 968.436,-186.034"/>
<polygon fill="black" stroke="black" points="970.687,-188.734 976.952,-180.19 966.726,-182.962 970.687,-188.734"/>
</g>
<!-- baum.Blatt@183f74d -->
<g id="node42" class="node"><title>baum.Blatt@183f74d</title>
<ellipse fill="#00b247" stroke="#00b247" cx="853" cy="-90" rx="27.4223" ry="18"/>
<text text-anchor="middle" x="853" y="-86.3" font-family="Times New Roman,serif" font-size="14.00">b &#45; 1</text>
</g>
<!-- baum.Knoten@10b4b2f&#45;&gt;baum.Blatt@183f74d -->
<g id="edge31" class="edge"><title>baum.Knoten@10b4b2f&#45;&gt;baum.Blatt@183f74d</title>
<path fill="none" stroke="black" d="M888.382,-143.697C882.614,-135.106 875.55,-124.585 869.255,-115.209"/>
<polygon fill="black" stroke="black" points="872.002,-113.022 863.522,-106.671 866.191,-116.924 872.002,-113.022"/>
</g>
<!-- baum.Blatt@16a9d42 -->
<g id="node43" class="node"><title>baum.Blatt@16a9d42</title>
<ellipse fill="#00b247" stroke="#00b247" cx="928" cy="-90" rx="28.3955" ry="18"/>
<text text-anchor="middle" x="928" y="-86.3" font-family="Times New Roman,serif" font-size="14.00">B &#45; 2</text>
</g>
<!-- baum.Knoten@10b4b2f&#45;&gt;baum.Blatt@16a9d42 -->
<g id="edge32" class="edge"><title>baum.Knoten@10b4b2f&#45;&gt;baum.Blatt@16a9d42</title>
<path fill="none" stroke="black" d="M906.921,-143.697C910.122,-135.696 913.992,-126.02 917.538,-117.155"/>
<polygon fill="black" stroke="black" points="920.887,-118.207 921.351,-107.622 914.387,-115.607 920.887,-118.207"/>
</g>
<!-- baum.Blatt@12152e6 -->
<g id="node45" class="node"><title>baum.Blatt@12152e6</title>
<ellipse fill="#00b247" stroke="#00b247" cx="1002" cy="-90" rx="26.949" ry="18"/>
<text text-anchor="middle" x="1002" y="-86.3" font-family="Times New Roman,serif" font-size="14.00">v &#45; 2</text>
</g>
<!-- baum.Knoten@750159&#45;&gt;baum.Blatt@12152e6 -->
<g id="edge35" class="edge"><title>baum.Knoten@750159&#45;&gt;baum.Blatt@12152e6</title>
<path fill="none" stroke="black" d="M1002,-143.697C1002,-135.983 1002,-126.712 1002,-118.112"/>
<polygon fill="black" stroke="black" points="1005.5,-118.104 1002,-108.104 998.5,-118.104 1005.5,-118.104"/>
</g>
<!-- baum.Knoten@15d56d5 -->
<g id="node46" class="node"><title>baum.Knoten@15d56d5</title>
<polygon fill="lightgray" stroke="lightgray" points="1101,-108 1047,-108 1047,-72 1101,-72 1101,-108"/>
<text text-anchor="middle" x="1074" y="-86.3" font-family="Times New Roman,serif" font-size="14.00">2</text>
</g>
<!-- baum.Knoten@750159&#45;&gt;baum.Knoten@15d56d5 -->
<g id="edge36" class="edge"><title>baum.Knoten@750159&#45;&gt;baum.Knoten@15d56d5</title>
<path fill="none" stroke="black" d="M1019.8,-143.697C1028.6,-135.135 1039.38,-124.656 1049,-115.304"/>
<polygon fill="black" stroke="black" points="1051.68,-117.585 1056.41,-108.104 1046.8,-112.566 1051.68,-117.585"/>
</g>
<!-- baum.Blatt@cd2c3c -->
<g id="node47" class="node"><title>baum.Blatt@cd2c3c</title>
<ellipse fill="#00b247" stroke="#00b247" cx="999" cy="-18" rx="28.3955" ry="18"/>
<text text-anchor="middle" x="999" y="-14.3" font-family="Times New Roman,serif" font-size="14.00">T &#45; 1</text>
</g>
<!-- baum.Knoten@15d56d5&#45;&gt;baum.Blatt@cd2c3c -->
<g id="edge33" class="edge"><title>baum.Knoten@15d56d5&#45;&gt;baum.Blatt@cd2c3c</title>
<path fill="none" stroke="black" d="M1055.46,-71.6966C1045.27,-62.1836 1032.54,-50.3036 1021.75,-40.2327"/>
<polygon fill="black" stroke="black" points="1024,-37.5435 1014.3,-33.279 1019.22,-42.6609 1024,-37.5435"/>
</g>
<!-- baum.Blatt@7a84e4 -->
<g id="node48" class="node"><title>baum.Blatt@7a84e4</title>
<ellipse fill="#00b247" stroke="#00b247" cx="1074" cy="-18" rx="27.4223" ry="18"/>
<text text-anchor="middle" x="1074" y="-14.3" font-family="Times New Roman,serif" font-size="14.00">p &#45; 1</text>
</g>
<!-- baum.Knoten@15d56d5&#45;&gt;baum.Blatt@7a84e4 -->
<g id="edge34" class="edge"><title>baum.Knoten@15d56d5&#45;&gt;baum.Blatt@7a84e4</title>
<path fill="none" stroke="black" d="M1074,-71.6966C1074,-63.9827 1074,-54.7125 1074,-46.1124"/>
<polygon fill="black" stroke="black" points="1077.5,-46.1043 1074,-36.1043 1070.5,-46.1044 1077.5,-46.1043"/>
</g>
<!-- baum.Knoten@1d4c61c -->
<g id="node50" class="node"><title>baum.Knoten@1d4c61c</title>
<polygon fill="lightgray" stroke="lightgray" points="1138,-324 1084,-324 1084,-288 1138,-288 1138,-324"/>
<text text-anchor="middle" x="1111" y="-302.3" font-family="Times New Roman,serif" font-size="14.00">21</text>
</g>
<!-- baum.Knoten@1975b59&#45;&gt;baum.Knoten@1d4c61c -->
<g id="edge53" class="edge"><title>baum.Knoten@1975b59&#45;&gt;baum.Knoten@1d4c61c</title>
<path fill="none" stroke="black" d="M1111,-359.697C1111,-351.983 1111,-342.712 1111,-334.112"/>
<polygon fill="black" stroke="black" points="1114.5,-334.104 1111,-324.104 1107.5,-334.104 1114.5,-334.104"/>
</g>
<!-- baum.Knoten@1a626f -->
<g id="node59" class="node"><title>baum.Knoten@1a626f</title>
<polygon fill="lightgray" stroke="lightgray" points="1250,-324 1196,-324 1196,-288 1250,-288 1250,-324"/>
<text text-anchor="middle" x="1223" y="-302.3" font-family="Times New Roman,serif" font-size="14.00">24</text>
</g>
<!-- baum.Knoten@1975b59&#45;&gt;baum.Knoten@1a626f -->
<g id="edge54" class="edge"><title>baum.Knoten@1975b59&#45;&gt;baum.Knoten@1a626f</title>
<path fill="none" stroke="black" d="M1138.11,-360.055C1152.86,-350.837 1171.29,-339.319 1187.21,-329.371"/>
<polygon fill="black" stroke="black" points="1189.12,-332.3 1195.75,-324.032 1185.41,-326.364 1189.12,-332.3"/>
</g>
<!-- baum.Blatt@1ded0fd -->
<g id="node51" class="node"><title>baum.Blatt@1ded0fd</title>
<ellipse fill="#00b247" stroke="#00b247" cx="1073" cy="-234" rx="30.3206" ry="18"/>
<text text-anchor="middle" x="1073" y="-230.3" font-family="Times New Roman,serif" font-size="14.00">r &#45; 10</text>
</g>
<!-- baum.Knoten@1d4c61c&#45;&gt;baum.Blatt@1ded0fd -->
<g id="edge49" class="edge"><title>baum.Knoten@1d4c61c&#45;&gt;baum.Blatt@1ded0fd</title>
<path fill="none" stroke="black" d="M1101.61,-287.697C1097.17,-279.523 1091.78,-269.603 1086.89,-260.584"/>
<polygon fill="black" stroke="black" points="1089.87,-258.741 1082.02,-251.622 1083.72,-262.081 1089.87,-258.741"/>
</g>
<!-- baum.Knoten@df8ff1 -->
<g id="node52" class="node"><title>baum.Knoten@df8ff1</title>
<polygon fill="lightgray" stroke="lightgray" points="1176,-252 1122,-252 1122,-216 1176,-216 1176,-252"/>
<text text-anchor="middle" x="1149" y="-230.3" font-family="Times New Roman,serif" font-size="14.00">11</text>
</g>
<!-- baum.Knoten@1d4c61c&#45;&gt;baum.Knoten@df8ff1 -->
<g id="edge50" class="edge"><title>baum.Knoten@1d4c61c&#45;&gt;baum.Knoten@df8ff1</title>
<path fill="none" stroke="black" d="M1120.39,-287.697C1124.76,-279.644 1130.06,-269.894 1134.9,-260.982"/>
<polygon fill="black" stroke="black" points="1138.02,-262.563 1139.71,-252.104 1131.87,-259.223 1138.02,-262.563"/>
</g>
<!-- baum.Knoten@1abab88 -->
<g id="node53" class="node"><title>baum.Knoten@1abab88</title>
<polygon fill="lightgray" stroke="lightgray" points="1176,-180 1122,-180 1122,-144 1176,-144 1176,-180"/>
<text text-anchor="middle" x="1149" y="-158.3" font-family="Times New Roman,serif" font-size="14.00">5</text>
</g>
<!-- baum.Knoten@df8ff1&#45;&gt;baum.Knoten@1abab88 -->
<g id="edge47" class="edge"><title>baum.Knoten@df8ff1&#45;&gt;baum.Knoten@1abab88</title>
<path fill="none" stroke="black" d="M1149,-215.697C1149,-207.983 1149,-198.712 1149,-190.112"/>
<polygon fill="black" stroke="black" points="1152.5,-190.104 1149,-180.104 1145.5,-190.104 1152.5,-190.104"/>
</g>
<!-- baum.Blatt@a1807c -->
<g id="node58" class="node"><title>baum.Blatt@a1807c</title>
<ellipse fill="#00b247" stroke="#00b247" cx="1222" cy="-162" rx="27.4223" ry="18"/>
<text text-anchor="middle" x="1222" y="-158.3" font-family="Times New Roman,serif" font-size="14.00">d &#45; 6</text>
</g>
<!-- baum.Knoten@df8ff1&#45;&gt;baum.Blatt@a1807c -->
<g id="edge48" class="edge"><title>baum.Knoten@df8ff1&#45;&gt;baum.Blatt@a1807c</title>
<path fill="none" stroke="black" d="M1167.04,-215.697C1176.97,-206.184 1189.35,-194.304 1199.86,-184.233"/>
<polygon fill="black" stroke="black" points="1202.31,-186.726 1207.11,-177.279 1197.47,-181.674 1202.31,-186.726"/>
</g>
<!-- baum.Knoten@1194a4e -->
<g id="node54" class="node"><title>baum.Knoten@1194a4e</title>
<polygon fill="lightgray" stroke="lightgray" points="1176,-108 1122,-108 1122,-72 1176,-72 1176,-108"/>
<text text-anchor="middle" x="1149" y="-86.3" font-family="Times New Roman,serif" font-size="14.00">2</text>
</g>
<!-- baum.Knoten@1abab88&#45;&gt;baum.Knoten@1194a4e -->
<g id="edge45" class="edge"><title>baum.Knoten@1abab88&#45;&gt;baum.Knoten@1194a4e</title>
<path fill="none" stroke="black" d="M1149,-143.697C1149,-135.983 1149,-126.712 1149,-118.112"/>
<polygon fill="black" stroke="black" points="1152.5,-118.104 1149,-108.104 1145.5,-118.104 1152.5,-118.104"/>
</g>
<!-- baum.Blatt@fe64b9 -->
<g id="node57" class="node"><title>baum.Blatt@fe64b9</title>
<ellipse fill="#00b247" stroke="#00b247" cx="1221" cy="-90" rx="27" ry="18"/>
<text text-anchor="middle" x="1221" y="-86.3" font-family="Times New Roman,serif" font-size="14.00">. &#45; 3</text>
</g>
<!-- baum.Knoten@1abab88&#45;&gt;baum.Blatt@fe64b9 -->
<g id="edge46" class="edge"><title>baum.Knoten@1abab88&#45;&gt;baum.Blatt@fe64b9</title>
<path fill="none" stroke="black" d="M1166.8,-143.697C1176.49,-134.276 1188.56,-122.534 1198.86,-112.527"/>
<polygon fill="black" stroke="black" points="1201.58,-114.759 1206.31,-105.279 1196.7,-109.74 1201.58,-114.759"/>
</g>
<!-- baum.Blatt@a97b0b -->
<g id="node55" class="node"><title>baum.Blatt@a97b0b</title>
<ellipse fill="#00b247" stroke="#00b247" cx="1149" cy="-18" rx="29.3722" ry="18"/>
<text text-anchor="middle" x="1149" y="-14.3" font-family="Times New Roman,serif" font-size="14.00">V &#45; 1</text>
</g>
<!-- baum.Knoten@1194a4e&#45;&gt;baum.Blatt@a97b0b -->
<g id="edge43" class="edge"><title>baum.Knoten@1194a4e&#45;&gt;baum.Blatt@a97b0b</title>
<path fill="none" stroke="black" d="M1149,-71.6966C1149,-63.9827 1149,-54.7125 1149,-46.1124"/>
<polygon fill="black" stroke="black" points="1152.5,-46.1043 1149,-36.1043 1145.5,-46.1044 1152.5,-46.1043"/>
</g>
<!-- baum.Blatt@506411 -->
<g id="node56" class="node"><title>baum.Blatt@506411</title>
<ellipse fill="#00b247" stroke="#00b247" cx="1223" cy="-18" rx="27" ry="18"/>
<text text-anchor="middle" x="1223" y="-14.3" font-family="Times New Roman,serif" font-size="14.00">I &#45; 1</text>
</g>
<!-- baum.Knoten@1194a4e&#45;&gt;baum.Blatt@506411 -->
<g id="edge44" class="edge"><title>baum.Knoten@1194a4e&#45;&gt;baum.Blatt@506411</title>
<path fill="none" stroke="black" d="M1167.29,-71.6966C1177.35,-62.1836 1189.91,-50.3036 1200.55,-40.2327"/>
<polygon fill="black" stroke="black" points="1203.05,-42.6936 1207.91,-33.279 1198.24,-37.6083 1203.05,-42.6936"/>
</g>
<!-- baum.Blatt@19616c7 -->
<g id="node60" class="node"><title>baum.Blatt@19616c7</title>
<ellipse fill="#00b247" stroke="#00b247" cx="1223" cy="-234" rx="29.3722" ry="18"/>
<text text-anchor="middle" x="1223" y="-230.3" font-family="Times New Roman,serif" font-size="14.00">i &#45; 11</text>
</g>
<!-- baum.Knoten@1a626f&#45;&gt;baum.Blatt@19616c7 -->
<g id="edge51" class="edge"><title>baum.Knoten@1a626f&#45;&gt;baum.Blatt@19616c7</title>
<path fill="none" stroke="black" d="M1223,-287.697C1223,-279.983 1223,-270.712 1223,-262.112"/>
<polygon fill="black" stroke="black" points="1226.5,-262.104 1223,-252.104 1219.5,-262.104 1226.5,-262.104"/>
</g>
<!-- baum.Blatt@1430b5c -->
<g id="node61" class="node"><title>baum.Blatt@1430b5c</title>
<ellipse fill="#00b247" stroke="#00b247" cx="1302" cy="-234" rx="31.2735" ry="18"/>
<text text-anchor="middle" x="1302" y="-230.3" font-family="Times New Roman,serif" font-size="14.00">n &#45; 13</text>
</g>
<!-- baum.Knoten@1a626f&#45;&gt;baum.Blatt@1430b5c -->
<g id="edge52" class="edge"><title>baum.Knoten@1a626f&#45;&gt;baum.Blatt@1430b5c</title>
<path fill="none" stroke="black" d="M1242.53,-287.697C1253.29,-278.157 1266.75,-266.237 1278.13,-256.148"/>
<polygon fill="black" stroke="black" points="1280.46,-258.76 1285.63,-249.508 1275.82,-253.52 1280.46,-258.76"/>
</g>
</g>
</svg>
